<?xml version="1.0" encoding="UTF-8"?>
<svg width="120px" height="60px" viewBox="0 0 120 60" version="1.1" xmlns="http://www.w3.org/2000/svg" xmlns:xlink="http://www.w3.org/1999/xlink">
    <title>Group 112</title>
    <g id="landing-page-designs" stroke="none" stroke-width="1" fill="none" fill-rule="evenodd">
        <g id="Group-110" transform="translate(-272.000000, -147.000000)">
            <g id="Group-112" transform="translate(272.000000, 147.000000)">
                <rect id="Rectangle" fill="#FFFFFF" x="0" y="0" width="120" height="60"></rect>
                <path d="M49.3575555,45 L8.64244444,45 C7.18306267,45 6,43.7975863 6,42.3143338 L6,18.6856662 C6,17.2024137 7.18306267,16 8.64244444,16 L49.3575555,16 C50.8169373,16 52,17.2024137 52,18.6856662 L52,42.3138144 C52,43.0261873 51.7217958,43.7094305 51.2262266,44.2132029 C50.7306575,44.7169754 50.0584639,45 49.3575555,45 L49.3575555,45 Z" id="Path" fill="#363B38" fill-rule="nonzero"></path>
                <path d="M49.3467657,16 L48.6262356,16 L48.6262356,28.2236771 C48.6262356,36.5461255 41.9613316,43.2924981 33.7393846,43.2924981 L6,43.2924981 C6.39605919,44.3212234 7.37465509,44.9989844 8.46540375,45 L49.3467657,45 C50.8121066,45 52,43.7975863 52,42.3143338 L52,18.6856662 C52,17.2024137 50.8121066,16 49.3467657,16 Z" id="Path" fill="#2E322F" fill-rule="nonzero"></path>
                <path d="M16.7501145,25 L10.2498855,25 C9.55959281,25 9,24.5336574 9,23.9583947 L9,21.0416053 C9,20.4660975 9.55988749,20 10.2498855,20 L16.7501145,20 C17.4407012,20 18,20.4665882 18,21.0416053 L18,23.9583947 C18,24.5334118 17.4407012,25 16.7501145,25 Z" id="Path" fill="#EAA500" fill-rule="nonzero"></path>
                <path d="M16.3040523,30.2315892 L9.58342584,30.2315892 C9.26120867,30.2315892 9.00000005,29.9558885 9.00000005,29.6157946 C9.00000005,29.2757006 9.26120867,29 9.58342584,29 L16.3045746,29 C16.5130125,29.0000985 16.7055674,29.1175592 16.8097056,29.308136 C16.9138437,29.4987127 16.9137442,29.7334523 16.8094444,29.9239305 C16.7051446,30.1144088 16.5124902,30.2316876 16.3040523,30.2315892 L16.3040523,30.2315892 Z M26.1230509,30.2315892 L19.4024245,30.2315892 C19.0802073,30.2315892 18.8189987,29.9558885 18.8189987,29.6157946 C18.8189987,29.2757006 19.0802073,29 19.4024245,29 L26.1235732,29 C26.3320112,29.0000985 26.524566,29.1175592 26.6287042,29.308136 C26.7328424,29.4987127 26.7327429,29.7334523 26.6284431,29.9239305 C26.5241433,30.1144088 26.3314889,30.2316876 26.1230509,30.2315892 L26.1230509,30.2315892 Z M35.9425719,30.2315891 L29.2209009,30.2315891 C28.8986837,30.2315891 28.6374751,29.9558885 28.6374751,29.6157946 C28.6374751,29.2757006 28.8986837,29 29.2209009,29 L35.9425719,29 C36.2647891,29 36.5259977,29.2757006 36.5259977,29.6157946 C36.5259977,29.9558885 36.2647891,30.2315891 35.9425719,30.2315891 Z M45.7615706,30.2315891 L39.0398995,30.2315891 C38.7176824,30.2315891 38.4564737,29.9558885 38.4564737,29.6157946 C38.4564737,29.2757006 38.7176824,29 39.0398995,29 L45.7615706,29 C46.0837877,29 46.3449964,29.2757006 46.3449964,29.6157946 C46.3449964,29.9558885 46.0837877,30.2315891 45.7615706,30.2315891 Z M22.1367433,40.6967887 L9.58342584,40.6967887 C9.37498787,40.6967887 9.18238323,40.579419 9.07816424,40.3888915 C8.97394525,40.198364 8.97394525,39.9636244 9.07816424,39.7730969 C9.18238323,39.5825694 9.37498787,39.4651996 9.58342584,39.4651996 L22.1367433,39.4651996 C22.4589604,39.4651996 22.720169,39.7409002 22.720169,40.0809942 C22.720169,40.4210881 22.4589604,40.6967887 22.1367433,40.6967887 L22.1367433,40.6967887 Z M22.1367433,37.003124 L17.7487754,37.003124 C17.4265582,37.003124 17.1653496,36.7274234 17.1653496,36.3873294 C17.1653496,36.0472355 17.4265582,35.7715349 17.7487754,35.7715349 L22.1367433,35.7715349 C22.4589604,35.7715349 22.720169,36.0472355 22.720169,36.3873294 C22.720169,36.7274234 22.4589604,37.003124 22.1367433,37.003124 Z M44.3904938,35.3812193 C43.5652362,35.3812193 42.8371292,35.7858685 42.349287,36.4077273 C41.8609226,35.7858685 41.1328155,35.3812193 40.3080802,35.3812193 C38.8586034,35.4115291 37.6985741,36.6604149 37.6985741,38.1906096 C37.6985741,39.7208044 38.8586034,40.9696902 40.3080802,41 C41.1333378,41 41.8614449,40.5953508 42.349287,39.973492 C42.8376515,40.5953508 43.5657585,41 44.3904938,41 C45.8399706,40.9696902 47,39.7208044 47,38.1906096 C47,36.6604149 45.8399706,35.4115291 44.3904938,35.3812193 Z" id="Shape" fill="#545C56" fill-rule="nonzero"></path>
                <text id="Credit-Cards" font-family="Ubuntu-Bold, Ubuntu" font-size="18" font-weight="bold" line-spacing="16" fill="#000000">
                    <tspan x="56" y="31">Credit </tspan>
                    <tspan x="56" y="47">Cards</tspan>
                </text>
            </g>
        </g>
    </g>
</svg>