<?xml version="1.0" encoding="UTF-8"?>
<svg width="120px" height="60px" viewBox="0 0 120 60" version="1.1" xmlns="http://www.w3.org/2000/svg" xmlns:xlink="http://www.w3.org/1999/xlink">
    <title>direct-debit-logo-vector (1)</title>
    <defs>
        <rect id="path-1" x="0" y="0" width="120" height="60"></rect>
    </defs>
    <g id="landing-page-designs" stroke="none" stroke-width="1" fill="none" fill-rule="evenodd">
        <g id="Group-110" transform="translate(-272.000000, -301.000000)">
            <g id="direct-debit-logo-vector-(1)" transform="translate(272.000000, 301.000000)">
                <mask id="mask-2" fill="white">
                    <use xlink:href="#path-1"></use>
                </mask>
                <use id="Mask" fill="#FFFFFF" xlink:href="#path-1"></use>
                <g mask="url(#mask-2)" fill-rule="nonzero">
                    <g transform="translate(5.000000, -25.000000)">
                        <polygon id="Path" fill-opacity="0" fill="#FFFFFF" points="0 0 110 0 110 110 0 110"></polygon>
                        <path d="M52.0434941,45.7184248 L57.2298974,45.7184248 C57.2298974,45.7184248 62.3650909,45.6160338 62.3133122,50.2309423 C62.2621026,53.6672293 57.3345927,54.1797468 57.3345927,54.1797468 L52.0440631,54.1797468 L52.0440631,45.7184248 L52.0434941,45.7184248 L52.0434941,45.7184248 Z M67.5594601,62.2838256 C67.7051232,62.954993 68.1961672,63.6947961 69.8343082,63.7707454 C72.0124269,63.8213783 73.2573913,63.0005626 73.2573913,63.0005626 L73.2573913,64.590436 C73.2573913,64.590436 70.8715889,65.1552743 69.7301819,65.1552743 C68.5375652,65.1552743 65.0103557,64.8981716 65.0103557,61.6677918 C65.0103557,59.0528833 67.915083,58.2320675 69.5742768,58.2320675 C72.479004,58.3344585 73.8793045,59.3606188 73.8275258,62.283263 C73.8275258,62.3254571 69.048524,62.2939522 67.5594601,62.2838256 L67.5594601,62.2838256 Z M67.5662881,61.0005626 L71.5458497,61.0005626 C71.5458497,61.0005626 71.5458497,59.5136428 69.6266245,59.5136428 C68.1830803,59.5136428 67.7108132,60.283263 67.5662881,61.0005626 Z M80.155336,59.3949367 C80.7311605,58.7772152 81.6978856,58.2827004 83.3195257,58.2827004 C86.535494,58.2827004 87.0544188,60.9493671 87.0026401,61.6672293 C86.9508615,62.3850914 86.691399,65.1029536 82.9576439,65.1029536 C81.5471015,65.1029536 80.6839338,64.6270042 80.155905,64.0362869 L80.155905,64.897609 L77.6141976,64.897609 L77.6141976,55.6666667 L80.155905,55.6666667 L80.155905,59.3949367 L80.155336,59.3949367 L80.155336,59.3949367 Z M82.3345927,63.6672293 C83.8384505,63.6154712 84.5127114,62.3344585 84.5127114,61.7189873 C84.5127114,61.1035162 84.1491226,59.8213783 82.2298974,59.8213783 C80.7408335,59.8213783 80.2873432,60.9336146 80.155336,61.4770745 L80.155336,62.1459916 C80.2862052,62.7001406 80.7419715,63.6672293 82.3345927,63.6672293 L82.3345927,63.6672293 Z M104.274529,63.4112518 L104.325739,64.8475387 C104.325739,64.8475387 103.133122,65.1035162 102.355304,65.1035162 C101.577486,65.1035162 99.5535653,64.6421941 99.5535653,62.692827 L99.5535653,59.7184248 L97.4277943,59.7184248 L97.4277943,58.385654 L99.5535653,58.385654 L99.5535653,56.7957806 L102.14762,56.7957806 L102.14762,58.385654 L104.274529,58.385654 L104.274529,59.7184248 L102.14762,59.7184248 L102.14762,62.283263 C102.14762,62.283263 102.14762,63.5654008 103.18547,63.5654008 C104.222182,63.5654008 104.274529,63.4112518 104.274529,63.4112518 L104.274529,63.4112518 Z M96.3905137,47.1029536 L99.3987983,47.1029536 L99.3987983,54.2309423 L101.939368,54.2309423 L101.939368,47.1029536 L105,47.1029536 L105,45.6154712 L96.3905137,45.6154712 L96.3905137,47.1029536 Z M95.352664,47.4618847 L95.6639051,45.9744023 C95.6639051,45.9744023 94.3671621,45.4106892 92.085486,45.4106892 C89.8550197,45.4106892 86.2766006,46.6416315 86.2766006,49.9749648 C86.2766006,53.2571027 90.0627034,54.3850914 92.3967271,54.3850914 C94.7307508,54.3850914 95.5085691,54.0261603 95.5085691,54.0261603 L95.2496757,52.3850914 C95.2496757,52.3850914 94.211826,52.692827 92.4479368,52.692827 C90.7363953,52.6416315 88.9742131,51.3082982 88.9742131,49.8213783 C89.0254228,48.488045 90.5810592,47.0005626 92.6049799,47.0005626 C94.1600473,47.0005626 95.352664,47.4618847 95.352664,47.4618847 L95.352664,47.4618847 Z M72.4272253,45.6672293 C72.4272253,45.6672293 76.6804743,45.4624473 76.6804743,47.9237693 C76.6804743,50.0267229 74.2434622,50.1803094 74.2434622,50.1803094 C74.2434622,50.1803094 74.9171541,50.2827004 75.2289642,50.7440225 C75.4878576,51.1541491 77.1993991,54.2315049 77.1993991,54.2315049 L74.605344,54.2315049 C74.605344,54.2315049 74.1905456,53.7184248 73.9828618,53.3600563 C73.8275258,53.0011252 73.3603796,52.2315049 73.3603796,52.2315049 C73.3603796,52.2315049 72.9979289,50.9493671 71.7523955,50.9493671 C71.7211007,50.9493671 71.2146938,50.9302391 70.8186722,50.9156118 L70.8186722,54.2315049 L68.3293124,54.2315049 L68.3293124,45.6672293 L72.4272253,45.6672293 L72.4272253,45.6672293 Z M70.8192412,49.5136428 L72.1683319,49.5136428 C72.1683319,49.5136428 74.0352095,49.4106892 74.1387669,48.2827004 C74.1911146,47.2059072 72.324237,47.0517581 72.324237,47.0517581 L70.8192412,47.0517581 L70.8192412,49.5136428 L70.8192412,49.5136428 Z M81.2443954,50.8469761 L85.394087,50.8469761 L85.394087,49.2571027 L81.2443954,49.2571027 L81.2443954,47.3082982 L85.7576758,47.3082982 L85.7576758,45.6672293 L78.7043949,45.6672293 L78.7043949,54.2315049 L85.8100234,54.2315049 L85.8100234,52.692827 L81.2449644,52.692827 L81.2449644,50.8469761 L81.2443954,50.8469761 Z M91.3583085,57.4106892 L93.9000159,57.4106892 L93.9000159,55.6666667 L91.3583085,55.6666667 L91.3583085,57.4106892 Z M91.3583085,64.8981716 L93.9000159,64.8981716 L93.9000159,58.385654 L91.3583085,58.385654 L91.3583085,64.8981716 L91.3583085,64.8981716 Z M63.662403,54.2315049 L66.1517628,54.2315049 L66.1517628,45.6672293 L63.662403,45.6672293 L63.662403,54.2315049 L63.662403,54.2315049 Z M52.0434941,56.385654 L57.2298974,56.385654 C57.2298974,56.385654 62.3650909,56.2821378 62.3133122,60.8981716 C62.2621026,64.3338959 57.3345927,64.8475387 57.3345927,64.8475387 L52.0440631,64.8475387 L52.0440631,56.385654 L52.0434941,56.385654 L52.0434941,56.385654 Z M54.5852015,63.2576653 L56.2449644,63.2576653 C56.2449644,63.2576653 59.6680474,63.0523207 59.6680474,60.4368495 C59.6680474,57.8213783 56.0372807,57.5648383 56.0372807,57.5648383 L54.5852015,57.5648383 L54.5852015,63.2576653 Z M54.5852015,52.590436 L56.2449644,52.590436 C56.2449644,52.590436 59.6680474,52.3338959 59.6680474,49.7696203 C59.6680474,47.1029536 56.0372807,46.8981716 56.0372807,46.8981716 L54.5852015,46.8981716 L54.5852015,52.590436 Z M28.7550356,50.8165963 L28.7550356,67.9755274 C28.7550356,67.9755274 18.6923322,66.1803094 18.6923322,59.3600563 C18.6929012,53.9203938 26.1416346,51.5226442 28.7550356,50.8165963 Z M28.7550356,50.4964838 C22.7071716,50.0638537 8.99378656,52.8666667 8.99378656,59.0005626 C8.99378656,63 16.2553201,68.8469761 28.0807747,69.0005626 C28.5473519,69.0005626 41.9807907,68.4874824 41.7736759,54.2309423 C41.599563,42.2568214 32.5354485,40.1594937 29.6369802,39.7943741 L29.6369802,39.0646976 C41.1921615,39.7898734 50.2801739,46.6607595 50.2801739,55 C50.2801739,63.8208158 40.1139131,71 27.6141976,71 C15.1144821,71 5,63.8202532 5,55 C5,46.1797468 15.1139131,39 27.6141976,39 C27.9971323,39 28.3777909,39.0067511 28.7556046,39.0202532 L28.7556046,50.4964838 L28.7550356,50.4964838 Z" id="Shape" fill="#000000"></path>
                    </g>
                </g>
            </g>
        </g>
    </g>
</svg>