<?xml version="1.0" encoding="UTF-8"?>
<svg width="120px" height="60px" viewBox="0 0 120 60" version="1.1" xmlns="http://www.w3.org/2000/svg" xmlns:xlink="http://www.w3.org/1999/xlink">
    <title>Group 77</title>
    <g id="landing-page-designs" stroke="none" stroke-width="1" fill="none" fill-rule="evenodd">
        <g id="Group-100">
            <rect id="Rectangle" fill="#FFFFFF" x="0" y="0" width="120" height="60"></rect>
            <path d="M36.8343288,39 C36.6994997,39.0002095 36.5847811,39.0928924 36.5636097,39.2187181 L35.0030605,48.5721311 C34.991602,48.6411965 35.0126478,48.7115452 35.060676,48.7647199 C35.1087043,48.8178946 35.1789208,48.8485873 35.2529027,48.8487451 L37.1041403,48.8487451 C37.2388229,48.8485695 37.3534883,48.7561112 37.3748594,48.6304559 L37.8330168,45.8836146 C37.8542881,45.7578741 37.9689801,45.6653036 38.1037359,45.6651109 L39.7861429,45.6651109 C41.7528843,45.6651109 43.4219027,44.3097023 43.7266603,42.4722563 C44.0343678,40.6200146 42.5030916,39.0038597 40.3318926,39 L36.8343288,39 Z M38.633828,41.0881141 L39.980162,41.0881141 C41.0889076,41.0881141 41.4494882,41.7060998 41.335346,42.3897009 C41.2212037,43.0745886 40.6611578,43.5791411 39.588493,43.5791411 L38.2178782,43.5791411 L38.633828,41.0881141 Z M47.4919931,41.7243263 C47.0245318,41.7260417 46.4864974,41.8163165 45.8826554,42.0539044 C44.4977445,42.5991985 43.8326333,43.726883 43.5503411,44.5487912 C43.5503411,44.5487912 42.6512723,47.0563293 44.6824598,48.434253 C44.6824598,48.434253 46.5659205,49.7602848 48.6867426,48.3521265 L48.6504349,48.5721311 C48.6389764,48.6411965 48.6600222,48.7115452 48.7080505,48.7647199 C48.7560787,48.8178946 48.8262952,48.8485873 48.9002771,48.8487451 L50.6575686,48.8487451 C50.7921339,48.8487451 50.90673,48.7558972 50.9278338,48.6300271 L51.996868,42.2250191 C52.0084734,42.155887 51.9874951,42.085417 51.9394498,42.032141 C51.8914044,41.9788649 51.8211004,41.9481145 51.7470258,41.9479762 L49.9897343,41.9479762 C49.8547151,41.9479762 49.740119,42.0408242 49.7190152,42.1666943 L49.6618306,42.511068 L49.6613767,42.511068 C49.6613767,42.511068 48.8941502,41.7193944 47.4917662,41.7240909 L47.4919931,41.7243263 Z M47.5494046,43.7474683 C47.7511392,43.7474683 47.9356275,43.7734142 48.1010544,43.8238052 C48.8589771,44.0541024 49.28945,44.7417777 49.1648693,45.4879922 C49.0114694,46.4068224 48.214062,47.0835618 47.191774,47.0835618 C46.9900395,47.0835618 46.8050973,47.0574014 46.6396705,47.0072249 C45.8817477,46.7771421 45.4490056,46.089038 45.5738133,45.342609 C45.7272132,44.4242076 46.5268897,43.7474683 47.5494046,43.7474683 Z" id="Shape" fill="#003087" fill-rule="nonzero"></path>
            <path d="M61.726381,39 C61.5997347,39 61.4918824,39.092848 61.472234,39.2187181 L60.0028803,48.5721311 C59.9920848,48.6412704 60.0119465,48.7116917 60.0572442,48.7648826 C60.1025419,48.8180734 60.1687439,48.8487451 60.2384467,48.8487451 L61.9807415,48.8487451 C62.1076014,48.8487451 62.2154537,48.7561116 62.235102,48.6304559 L62.6669383,45.8836146 C62.6869577,45.7578741 62.7949002,45.6653036 62.9217259,45.6651109 L64.5051255,45.6651109 C66.3561268,45.6651109 67.9269258,44.3097023 68.2137487,42.4722563 C68.5033481,40.6200146 67.0617583,39.0038597 65.018545,39 L61.726381,39 Z M63.4199821,41.0881141 L64.6872997,41.0881141 C65.7305836,41.0881141 66.0703716,41.7060998 65.9629465,42.3897009 C65.8555214,43.0745886 65.3282198,43.5791411 64.3184663,43.5791411 L63.0285103,43.5791411 L63.4199821,41.0881141 Z M71.7572833,41.7243263 C71.3173314,41.7260417 70.8109597,41.8163165 70.2426529,42.0539044 C68.9394557,42.5991985 68.3128447,43.726883 68.047165,44.5487912 C68.047165,44.5487912 67.2014323,47.0563293 69.1128737,48.434253 C69.1128737,48.434253 70.8857088,49.7602848 72.8817234,48.3521265 L72.8471252,48.5721311 C72.8363297,48.6412704 72.8561914,48.7116917 72.9014891,48.7648826 C72.9467869,48.8180734 73.0129888,48.8487125 73.0826917,48.8487451 L74.7361418,48.8487451 C74.8630364,48.8485356 74.971004,48.7558528 74.9909294,48.6300271 L75.9970523,42.2250191 C76.0079863,42.155813 75.9881882,42.0852704 75.9428743,42.0319781 C75.8975605,41.9786858 75.831276,41.9479892 75.7614859,41.9479762 L74.1080358,41.9479762 C73.9809623,41.9479762 73.87311,42.0408242 73.8532481,42.1666943 L73.7992152,42.511068 C73.7992152,42.511068 73.0771389,41.7193944 71.7572833,41.7240909 L71.7572833,41.7243263 Z M71.8108891,43.7474683 C72.0009654,43.7474683 72.1748104,43.7734142 72.3305021,43.8238052 C73.0438221,44.0541024 73.4485351,44.7417777 73.3314994,45.4879922 C73.1871268,46.4068224 72.4366459,47.0835618 71.4745181,47.0835618 C71.2846554,47.0835618 71.1110239,47.0574014 70.9553322,47.0072249 C70.2420122,46.7771421 69.8347364,46.089038 69.9519857,45.342609 C70.0963583,44.4242076 70.8489749,43.7474683 71.8111027,43.7474683 L71.8108891,43.7474683 Z" id="Shape" fill="#0070E0" fill-rule="nonzero"></path>
            <path d="M52.2021269,42.0002179 C52.1374765,42.000139 52.0766983,42.030264 52.0386543,42.0812438 C52.0006103,42.1322236 51.9899035,42.1978903 52.0098565,42.2578648 L53.9053169,47.9953537 L52.1909614,50.699448 C52.1523664,50.7602215 52.1505802,50.8366229 52.1862949,50.8990489 C52.2220095,50.9614749 52.2896128,51.000116 52.3629105,51 L54.3883377,51 C54.5062961,51.0001091 54.6157262,50.9400555 54.676855,50.8416656 L59.9708795,42.2990273 C60.0085559,42.2382098 60.0097513,42.162322 59.9740082,42.1004045 C59.9382651,42.038487 59.8711172,42.0001255 59.7982604,42 L57.7728332,42 C57.6537764,41.9999047 57.5435041,42.061088 57.4827527,42.1609477 L55.3988182,45.5929 L54.3407726,42.1866471 C54.3062352,42.0758229 54.201391,42.0001063 54.0826255,42.0002179 L52.2021269,42.0002179 Z" id="Path" fill="#003087" fill-rule="nonzero"></path>
            <path d="M77.8626647,39 C77.7260206,39 77.6096543,39.0942739 77.5884549,39.2220771 L76.0031076,48.7191378 C75.9914599,48.7893389 76.0128896,48.8608418 76.0617632,48.9148495 C76.1106368,48.9688572 76.1820649,49 76.2572702,49 L78.1368744,49 C78.2735185,49 78.3898848,48.9059438 78.4110842,48.7783584 L79.9968923,39.2810799 C80.0085526,39.2108037 79.9870642,39.1392269 79.938087,39.0852027 C79.8891099,39.0311785 79.8175547,39.0001236 79.742269,39.0002177 L77.8626647,39 Z" id="Path" fill="#0070E0" fill-rule="nonzero"></path>
            <path d="M55.1464411,14 C54.7722782,14 54.4536895,14.2577749 54.3954813,14.6079227 L53.147485,22.1049811 L52.00069,28.9941169 L52,29 L52.00138,28.9941169 L53.147945,22.1049811 C53.2060495,21.7548671 53.5245633,21.4969425 53.8986748,21.4970585 L57.5550326,21.4970585 C61.2346208,21.4970585 64.3578316,18.9538066 64.9280091,15.5076045 C64.9706534,15.2504569 64.9947064,14.99085 65,14.7305966 L65,14.7301609 L64.99977,14.7301609 C64.0645778,14.2653942 62.9665434,14 61.7631677,14 L55.1464411,14 Z" id="Path" fill="#001C64" fill-rule="nonzero"></path>
            <path d="M64.9820174,14.0002262 C64.9771079,14.2705943 64.9544312,14.5402969 64.914146,14.8074478 C64.3746555,18.3856474 61.4205103,21.0265379 57.9405793,21.0265379 L54.4824021,21.0265379 C54.1286018,21.0265127 53.8274034,21.2942707 53.772363,21.6577453 L52.6879437,28.8102984 L52.0070546,33.2982059 C51.9806093,33.4736443 52.0292759,33.652335 52.1402572,33.7872905 C52.2512386,33.922246 52.4134287,34 52.5841788,34 L56.3377706,34 C56.6916195,34 56.9928889,33.7323023 57.0480272,33.3687926 L58.0367304,26.8469944 C58.0920278,26.4835432 58.393169,26.2158221 58.746987,26.2155607 L60.9571576,26.2155607 C64.4375236,26.2155607 67.3910162,23.5748965 67.9305067,19.9969231 C68.3133709,17.4567091 67.0842898,15.1459017 64.9820174,14 L64.9820174,14.0002262 Z" id="Path" fill="#0070E0" fill-rule="nonzero"></path>
            <path d="M51.6100227,9 C51.2613623,9.00035896 50.9646622,9.2582739 50.910171,9.60836585 L48.006987,28.3236262 C47.9808575,28.4926518 48.0287666,28.6648391 48.1381156,28.7949077 C48.2474647,28.9249762 48.4073099,29 48.5756165,29 L52.8808626,29 L53.9499375,22.1083114 L55.1133553,14.6084748 C55.1676186,14.2581973 55.4646161,14.0001954 55.8134214,14.000327 L61.9815081,14.000327 C63.1033293,14.000327 64.1271626,14.2662554 64.9989755,14.7305404 C65.0585829,11.5917126 62.5108996,9 59.0077815,9 L51.6100227,9 Z" id="Path" fill="#003087" fill-rule="nonzero"></path>
        </g>
    </g>
</svg>