<?xml version="1.0" encoding="UTF-8"?>
<svg width="120px" height="60px" viewBox="0 0 120 60" version="1.1" xmlns="http://www.w3.org/2000/svg" xmlns:xlink="http://www.w3.org/1999/xlink">
    <title>Group 82</title>
    <g id="landing-page-designs" stroke="none" stroke-width="1" fill="none" fill-rule="evenodd">
        <g id="Group-82">
            <rect id="Rectangle" fill="#FFFFFF" x="0" y="0" width="120" height="60"></rect>
            <path d="M60.825,30.7 L60.825,40 L57.825,40 L57.825,17 L65.625,17 C67.525,17 69.325,17.7 70.725,19 C72.125,20.2 72.825,22 72.825,23.9 C72.825,25.8 72.125,27.5 70.725,28.8 C69.325,30.1 67.625,30.8 65.625,30.8 L60.825,30.7 Z" id="Path" fill="#5F6368" fill-rule="nonzero"></path>
            <path d="M60.825,19.8 L60.825,27.8 L65.825,27.8 C66.925,27.8 68.025,27.4 68.725,26.6 C70.325,25.1 70.325,22.6 68.825,21.1 L68.725,21 C67.925,20.2 66.925,19.7 65.825,19.8 L60.825,19.8 Z" id="Path" fill="#FFFFFF" fill-rule="nonzero"></path>
            <path d="M79.725,23.8 C81.925,23.8 83.625,24.4 84.925,25.6 C86.225,26.8 86.825,28.4 86.825,30.4 L86.825,40 L84.025,40 L84.025,37.8 L83.925,37.8 C82.725,39.6 81.025,40.5 79.025,40.5 C77.325,40.5 75.825,40 74.625,39 C73.525,38 72.825,36.6 72.825,35.1 C72.825,33.5 73.425,32.2 74.625,31.2 C75.825,30.2 77.525,29.8 79.525,29.8 C81.325,29.8 82.725,30.1 83.825,30.8 L83.825,30.1 C83.825,29.1 83.425,28.1 82.625,27.5 C81.825,26.8 80.825,26.4 79.725,26.4 C78.025,26.4 76.725,27.1 75.825,28.5 L73.225,26.9 C74.825,24.8 76.925,23.8 79.725,23.8 L79.725,23.8 Z" id="Path" fill="#5F6368" fill-rule="nonzero"></path>
            <path d="M75.925,35.2 C75.925,36 76.325,36.7 76.925,37.1 C77.625,37.6 78.425,37.9 79.225,37.9 C80.425,37.9 81.625,37.4 82.525,36.5 C83.525,35.6 84.025,34.5 84.025,33.3 C83.125,32.6 81.825,32.2 80.125,32.2 C78.925,32.2 77.925,32.5 77.125,33.1 C76.325,33.6 75.925,34.3 75.925,35.2 L75.925,35.2 Z" id="Path" fill="#FFFFFF" fill-rule="nonzero"></path>
            <polygon id="Path" fill="#5F6368" fill-rule="nonzero" points="103.025 24.3 93.125 47 90.125 47 93.825 39.1 87.325 24.4 90.525 24.4 95.225 35.7 95.325 35.7 99.925 24.4 103.025 24.4"></polygon>
            <path d="M48.925,28.7 C48.925,27.8 48.825,26.9 48.725,26 L36.225,26 L36.225,31.1 L43.325,31.1 C43.025,32.7 42.125,34.2 40.725,35.1 L40.725,38.4 L45.025,38.4 C47.525,36.1 48.925,32.7 48.925,28.7 L48.925,28.7 Z" id="Path" fill="#4285F4" fill-rule="nonzero"></path>
            <path d="M36.225,41.6 C39.825,41.6 42.825,40.4 45.025,38.4 L40.725,35.1 C39.525,35.9 38.025,36.4 36.225,36.4 C32.825,36.4 29.825,34.1 28.825,30.9 L24.425,30.9 L24.425,34.3 C26.725,38.8 31.225,41.6 36.225,41.6 Z" id="Path" fill="#34A853" fill-rule="nonzero"></path>
            <path d="M28.825,30.9 C28.225,29.3 28.225,27.5 28.825,25.8 L28.825,22.4 L24.425,22.4 C22.525,26.1 22.525,30.5 24.425,34.3 L28.825,30.9 L28.825,30.9 Z" id="Path" fill="#FBBC04" fill-rule="nonzero"></path>
            <path d="M36.225,20.4 C38.125,20.4 39.925,21.1 41.325,22.4 L45.125,18.6 C42.725,16.4 39.525,15.1 36.325,15.2 C31.325,15.2 26.725,18 24.525,22.5 L28.925,25.9 C29.825,22.7 32.825,20.4 36.225,20.4 Z" id="Path" fill="#EA4335" fill-rule="nonzero"></path>
        </g>
    </g>
</svg>