<?xml version="1.0" encoding="UTF-8"?>
<svg width="120px" height="60px" viewBox="0 0 120 60" version="1.1" xmlns="http://www.w3.org/2000/svg" xmlns:xlink="http://www.w3.org/1999/xlink">
    <title>Group 104</title>
    <defs>
        <path d="M66.0195294,0 C69.3223529,0 72,2.68672797 72,6.00127998 L72,32.0128868 C71.9444706,35.1935628 69.4903529,37.8382627 66.2990588,38 L5.70070588,38 C2.38258824,37.8503045 0.161647059,35.2263825 0,32.0128868 L0,6.00127998 C0,2.68672797 2.67741176,0 5.98023529,0 L66.0195294,0 Z" id="path-1"></path>
        <linearGradient x1="50%" y1="100.037281%" x2="50%" y2="0%" id="linearGradient-3">
            <stop stop-color="#3D403E" offset="0%"></stop>
            <stop stop-color="#000105" offset="100%"></stop>
        </linearGradient>
        <radialGradient cx="8.75135135%" cy="-3.52162162%" fx="8.75135135%" fy="-3.52162162%" r="162.913514%" id="radialGradient-4">
            <stop stop-color="#DA3232" offset="0%"></stop>
            <stop stop-color="#DD464F" offset="49.5%"></stop>
            <stop stop-color="#915290" offset="100%"></stop>
        </radialGradient>
    </defs>
    <g id="landing-page-designs" stroke="none" stroke-width="1" fill="none" fill-rule="evenodd">
        <g id="Group-104">
            <rect id="Rectangle" fill="#FFFFFF" x="0" y="0" width="120" height="60"></rect>
            <g id="Clipped" transform="translate(24.000000, 11.000000)">
                <mask id="mask-2" fill="white">
                    <use xlink:href="#path-1"></use>
                </mask>
                <g id="Path"></g>
                <polygon id="Path" fill="url(#linearGradient-3)" fill-rule="nonzero" mask="url(#mask-2)" points="0 0 72 0 72 38 0 38"></polygon>
            </g>
            <path d="M53.8834356,17 L58.805726,17 L58.805726,44.7908218 L53.8834356,44.7908218 L53.8834356,17 Z M63.0163599,26.3831377 L67.9386503,26.3831377 L67.9386503,44.7908218 L63.0163599,44.7908218 L63.0163599,26.3831377 Z M90,44.7908218 L82.6032802,35.0490928 L89.406953,26.3831377 L83.595092,26.3831377 L77.0715746,34.790429 L77.0715746,17 L72.1492843,17 L72.1492843,44.7908218 L77.0715746,44.7908218 L77.0715746,35.3400299 L83.595092,44.7908218 L90,44.7908218 M41.3404908,40.0394877 C38.9004581,40.0394877 36.9222904,38.0459594 36.9222904,35.5869797 C36.9222904,33.128 38.9004581,31.1344717 41.3404908,31.1344717 C43.7805235,31.1344717 45.7586912,33.128 45.7586912,35.5869797 C45.7586912,38.0459594 43.7805235,40.0394877 41.3404908,40.0394877 Z M41.3404908,26.1739594 C39.7985091,26.1718838 38.2802175,26.5562731 36.9222904,27.2925251 L36.9222904,17 L32,17 L32,35.5869797 C32,40.7855966 36.1819305,45 41.3404908,45 C46.4990511,45 50.6809816,40.7855966 50.6809816,35.5869797 C50.6809816,30.3883629 46.4990511,26.1739594 41.3404908,26.1739594" id="Shape" fill="#FFFFFE" fill-rule="nonzero"></path>
            <path d="M50,20.5 C50,22.9854595 47.9852162,25 45.5,25 C43.0147838,25 41,22.9854595 41,20.5 C41,18.0147838 43.0147838,16 45.5,16 C47.9852162,16 50,18.0147838 50,20.5 Z" id="Path" fill="url(#radialGradient-4)" fill-rule="nonzero"></path>
        </g>
    </g>
</svg>