<?xml version="1.0" encoding="UTF-8"?>
<svg width="120px" height="60px" viewBox="0 0 120 60" version="1.1" xmlns="http://www.w3.org/2000/svg" xmlns:xlink="http://www.w3.org/1999/xlink">
    <title>Group 105</title>
    <g id="landing-page-designs" stroke="none" stroke-width="1" fill="none" fill-rule="evenodd">
        <g id="Group-105">
            <g id="Group-90">
                <rect id="Rectangle" fill="#FFFFFF" x="0" y="0" width="120" height="60"></rect>
                <path d="M11.4960625,16.5501429 C11.4960625,12.3968571 14.9032344,9.02614286 19.0963125,9.02614286 L101.903688,9.02614286 C106.096766,9.02614286 109.503938,12.3968571 109.503938,16.5501429 L109.503938,43.4498571 C109.503938,47.6031429 106.107813,50.973884 101.903688,50.973884 L19.0963125,50.973884 C14.9032344,50.9848571 11.4960625,47.6141429 11.4960625,43.4608571 L11.4960625,16.5501429 Z" id="_92653320" fill="#000268" fill-rule="nonzero"></path>
                <path d="M14.6160156,16.8141429 L14.6160156,43.2078571 C14.6160156,45.8085714 16.7401719,47.9127143 19.3614375,47.9127143 L62.7409375,47.9127143 L62.7409375,12.1092857 L19.3614375,12.1092857 C16.7401719,12.1092857 14.6160156,14.2134286 14.6160156,16.8141429 Z M73.95825,29.879 C73.95825,31.5635714 73.1281563,32.7107143 71.7457188,32.7107143 C70.5289844,32.7107143 69.5110938,31.5525714 69.5110938,30.011 C69.5110938,28.4364286 70.4074688,27.2562857 71.7457188,27.2562857 C73.1612969,27.2672857 73.95825,28.4804286 73.95825,29.879 Z M65.8372188,39.5181429 L69.5000469,39.5181429 L69.5000469,33.7902857 L69.5442344,33.7902857 C70.2417656,35.0458571 71.6242031,35.5078571 72.8961719,35.5078571 C76.0492656,35.5078571 77.7315469,32.9197143 77.7315469,29.802 C77.7315469,27.2452857 76.1265938,24.4811429 73.1944375,24.4811429 C71.5247813,24.4811429 69.9861094,25.1521429 69.2459688,26.6292857 L69.2017813,26.6292857 L69.2017813,24.7231429 L65.8261719,24.7231429 L65.8261719,39.5181429 L65.8372188,39.5181429 Z M82.7310469,31.9171429 C82.7310469,30.9035714 83.70475,30.517 84.9435781,30.517 C85.4975,30.517 86.0167031,30.5515714 86.4932969,30.5735714 C86.4932969,31.8071429 85.6190156,33.0627143 84.2365781,33.0627143 C83.3843906,33.0737143 82.7310469,32.6541429 82.7310469,31.9171429 Z M90.1214063,35.2658571 C89.9557031,34.4392857 89.9225625,33.6017143 89.9225625,32.7767143 L89.9225625,28.8434286 C89.9225625,25.6267143 87.5885156,24.4701429 84.8772969,24.4701429 C83.3181094,24.4701429 81.9467188,24.6901429 80.6510781,25.2197143 L80.7173594,27.6868571 C81.73525,27.1132857 82.9077969,26.8932857 84.0929688,26.8932857 C85.409125,26.8932857 86.4932969,27.2782857 86.5153906,28.7224286 C86.0498438,28.6454286 85.3980781,28.5794286 84.8110156,28.5794286 C82.8636094,28.5794286 79.3459688,28.9644286 79.3459688,32.1811429 C79.3459688,34.4722857 81.2160469,35.4968571 83.3070625,35.4968571 C84.8110156,35.4968571 85.8289063,34.9138571 86.659,33.5907143 L86.7031875,33.5907143 C86.7031875,34.1422857 86.7584219,34.6812857 86.7805156,35.2548571 L90.1214063,35.2548571 L90.1214063,35.2658571 Z M91.7595,39.5181429 C92.5106875,39.6831429 93.2634531,39.7601429 94.0383125,39.7601429 C97.39025,39.7601429 98.1872031,37.183 99.2271875,34.5382857 L103.109375,24.7231429 L99.448125,24.7231429 L97.2687344,31.6075714 L97.2355938,31.6075714 L94.9567813,24.7231429 L91.0177813,24.7231429 L95.3102813,35.5188571 C95.0451563,36.4554286 94.3586719,36.9724286 93.4622969,36.9724286 C92.9541406,36.9724286 92.5106875,36.9064286 92.0135781,36.7524286 L91.7595,39.5181429 Z" id="_92186184" fill="#FFFFFF" fill-rule="nonzero"></path>
                <path d="M23.5545156,29.901 C23.5545156,28.4584286 24.2630937,27.2672857 25.6344844,27.2672857 C27.2820469,27.2672857 27.9685312,28.5794286 27.9685312,29.758 C27.9685312,31.3765714 26.9285469,32.4671429 25.6344844,32.4671429 C24.5282187,32.4671429 23.5545156,31.5415714 23.5545156,29.901 Z M31.5082656,24.7121429 L28.1894687,24.7121429 L28.1894687,26.6182857 L28.1563281,26.6182857 C27.3830469,25.3187143 26.1205469,24.4701429 24.5613594,24.4701429 C21.2646562,24.4701429 19.7812187,26.8162857 19.7812187,29.956 C19.7812187,33.0737143 21.5960625,35.2658571 24.4950781,35.2658571 C25.9658906,35.2658571 27.182625,34.6922857 28.0569062,33.4587143 L28.1010937,33.4587143 L28.1010937,34.0322857 C28.1010937,36.0924286 26.9616875,37.084 24.8485781,37.084 C23.3225312,37.084 22.3819687,36.7634286 21.2646562,36.2134286 L21.0768594,39.0875714 C21.9274687,39.3971429 23.3777656,39.7601429 25.12475,39.7601429 C29.3951562,39.7601429 31.5082656,38.3615714 31.5082656,34.0322857 L31.5082656,24.7121429 Z M37.6929375,20.3168571 L34.0316875,20.3168571 L34.0316875,22.993 L37.6929375,22.993 L37.6929375,20.3168571 Z M34.0316875,35.2658571 L37.6929375,35.2658571 L37.6929375,24.7121429 L34.0316875,24.7121429 L34.0316875,35.2658571 Z M47.8828906,24.5911429 C47.5167656,24.5361429 47.0638437,24.4701429 46.6440625,24.4701429 C45.0612031,24.4701429 44.1427344,25.3187143 43.5130625,26.6622857 L43.468875,26.6622857 L43.468875,24.7231429 L40.1374531,24.7231429 L40.1374531,35.2768571 L43.8002812,35.2768571 L43.8002812,30.8265714 C43.8002812,28.7554286 44.7629375,27.5218571 46.4657344,27.5218571 C46.8981406,27.5218571 47.2958281,27.5218571 47.7061406,27.6428571 L47.8828906,24.5911429 Z M54.1890781,32.9527143 C52.49575,32.9527143 51.8092656,31.5525714 51.8092656,30 C51.8092656,28.4254286 52.49575,27.0252857 54.1890781,27.0252857 C55.8808281,27.0252857 56.5673125,28.4254286 56.5673125,30 C56.5673125,31.5525714 55.8697812,32.9527143 54.1890781,32.9527143 Z M54.1890781,35.5078571 C57.684625,35.5078571 60.3500781,33.4807143 60.3500781,30 C60.3500781,26.4972857 57.684625,24.4701429 54.1890781,24.4701429 C50.6919531,24.4701429 48.0265,26.4972857 48.0265,30 C48.0265,33.4807143 50.6809062,35.5078571 54.1890781,35.5078571 Z" id="_47303032" fill="#FF0007" fill-rule="nonzero"></path>
                <rect id="Rectangle" fill="#FFFFFF" x="0" y="0" width="120" height="60"></rect>
                <path d="M11.4960625,16.5501429 C11.4960625,12.3968571 14.9032344,9.02614286 19.0963125,9.02614286 L101.903688,9.02614286 C106.096766,9.02614286 109.503938,12.3968571 109.503938,16.5501429 L109.503938,43.4498571 C109.503938,47.6031429 106.107813,50.973884 101.903688,50.973884 L19.0963125,50.973884 C14.9032344,50.9848571 11.4960625,47.6141429 11.4960625,43.4608571 L11.4960625,16.5501429 Z" id="_92653320" fill="#000268" fill-rule="nonzero"></path>
                <path d="M14.6160156,16.8141429 L14.6160156,43.2078571 C14.6160156,45.8085714 16.7401719,47.9127143 19.3614375,47.9127143 L62.7409375,47.9127143 L62.7409375,12.1092857 L19.3614375,12.1092857 C16.7401719,12.1092857 14.6160156,14.2134286 14.6160156,16.8141429 Z M73.95825,29.879 C73.95825,31.5635714 73.1281563,32.7107143 71.7457188,32.7107143 C70.5289844,32.7107143 69.5110938,31.5525714 69.5110938,30.011 C69.5110938,28.4364286 70.4074688,27.2562857 71.7457188,27.2562857 C73.1612969,27.2672857 73.95825,28.4804286 73.95825,29.879 Z M65.8372188,39.5181429 L69.5000469,39.5181429 L69.5000469,33.7902857 L69.5442344,33.7902857 C70.2417656,35.0458571 71.6242031,35.5078571 72.8961719,35.5078571 C76.0492656,35.5078571 77.7315469,32.9197143 77.7315469,29.802 C77.7315469,27.2452857 76.1265938,24.4811429 73.1944375,24.4811429 C71.5247813,24.4811429 69.9861094,25.1521429 69.2459688,26.6292857 L69.2017813,26.6292857 L69.2017813,24.7231429 L65.8261719,24.7231429 L65.8261719,39.5181429 L65.8372188,39.5181429 Z M82.7310469,31.9171429 C82.7310469,30.9035714 83.70475,30.517 84.9435781,30.517 C85.4975,30.517 86.0167031,30.5515714 86.4932969,30.5735714 C86.4932969,31.8071429 85.6190156,33.0627143 84.2365781,33.0627143 C83.3843906,33.0737143 82.7310469,32.6541429 82.7310469,31.9171429 Z M90.1214063,35.2658571 C89.9557031,34.4392857 89.9225625,33.6017143 89.9225625,32.7767143 L89.9225625,28.8434286 C89.9225625,25.6267143 87.5885156,24.4701429 84.8772969,24.4701429 C83.3181094,24.4701429 81.9467188,24.6901429 80.6510781,25.2197143 L80.7173594,27.6868571 C81.73525,27.1132857 82.9077969,26.8932857 84.0929688,26.8932857 C85.409125,26.8932857 86.4932969,27.2782857 86.5153906,28.7224286 C86.0498438,28.6454286 85.3980781,28.5794286 84.8110156,28.5794286 C82.8636094,28.5794286 79.3459688,28.9644286 79.3459688,32.1811429 C79.3459688,34.4722857 81.2160469,35.4968571 83.3070625,35.4968571 C84.8110156,35.4968571 85.8289063,34.9138571 86.659,33.5907143 L86.7031875,33.5907143 C86.7031875,34.1422857 86.7584219,34.6812857 86.7805156,35.2548571 L90.1214063,35.2548571 L90.1214063,35.2658571 Z M91.7595,39.5181429 C92.5106875,39.6831429 93.2634531,39.7601429 94.0383125,39.7601429 C97.39025,39.7601429 98.1872031,37.183 99.2271875,34.5382857 L103.109375,24.7231429 L99.448125,24.7231429 L97.2687344,31.6075714 L97.2355938,31.6075714 L94.9567813,24.7231429 L91.0177813,24.7231429 L95.3102813,35.5188571 C95.0451563,36.4554286 94.3586719,36.9724286 93.4622969,36.9724286 C92.9541406,36.9724286 92.5106875,36.9064286 92.0135781,36.7524286 L91.7595,39.5181429 Z" id="_92186184" fill="#FFFFFF" fill-rule="nonzero"></path>
                <path d="M23.5545156,29.901 C23.5545156,28.4584286 24.2630937,27.2672857 25.6344844,27.2672857 C27.2820469,27.2672857 27.9685312,28.5794286 27.9685312,29.758 C27.9685312,31.3765714 26.9285469,32.4671429 25.6344844,32.4671429 C24.5282187,32.4671429 23.5545156,31.5415714 23.5545156,29.901 Z M31.5082656,24.7121429 L28.1894687,24.7121429 L28.1894687,26.6182857 L28.1563281,26.6182857 C27.3830469,25.3187143 26.1205469,24.4701429 24.5613594,24.4701429 C21.2646562,24.4701429 19.7812187,26.8162857 19.7812187,29.956 C19.7812187,33.0737143 21.5960625,35.2658571 24.4950781,35.2658571 C25.9658906,35.2658571 27.182625,34.6922857 28.0569062,33.4587143 L28.1010937,33.4587143 L28.1010937,34.0322857 C28.1010937,36.0924286 26.9616875,37.084 24.8485781,37.084 C23.3225312,37.084 22.3819687,36.7634286 21.2646562,36.2134286 L21.0768594,39.0875714 C21.9274687,39.3971429 23.3777656,39.7601429 25.12475,39.7601429 C29.3951562,39.7601429 31.5082656,38.3615714 31.5082656,34.0322857 L31.5082656,24.7121429 Z M37.6929375,20.3168571 L34.0316875,20.3168571 L34.0316875,22.993 L37.6929375,22.993 L37.6929375,20.3168571 Z M34.0316875,35.2658571 L37.6929375,35.2658571 L37.6929375,24.7121429 L34.0316875,24.7121429 L34.0316875,35.2658571 Z M47.8828906,24.5911429 C47.5167656,24.5361429 47.0638437,24.4701429 46.6440625,24.4701429 C45.0612031,24.4701429 44.1427344,25.3187143 43.5130625,26.6622857 L43.468875,26.6622857 L43.468875,24.7231429 L40.1374531,24.7231429 L40.1374531,35.2768571 L43.8002812,35.2768571 L43.8002812,30.8265714 C43.8002812,28.7554286 44.7629375,27.5218571 46.4657344,27.5218571 C46.8981406,27.5218571 47.2958281,27.5218571 47.7061406,27.6428571 L47.8828906,24.5911429 Z M54.1890781,32.9527143 C52.49575,32.9527143 51.8092656,31.5525714 51.8092656,30 C51.8092656,28.4254286 52.49575,27.0252857 54.1890781,27.0252857 C55.8808281,27.0252857 56.5673125,28.4254286 56.5673125,30 C56.5673125,31.5525714 55.8697812,32.9527143 54.1890781,32.9527143 Z M54.1890781,35.5078571 C57.684625,35.5078571 60.3500781,33.4807143 60.3500781,30 C60.3500781,26.4972857 57.684625,24.4701429 54.1890781,24.4701429 C50.6919531,24.4701429 48.0265,26.4972857 48.0265,30 C48.0265,33.4807143 50.6809062,35.5078571 54.1890781,35.5078571 Z" id="_47303032" fill="#FF0007" fill-rule="nonzero"></path>
            </g>
            <g id="layer1" transform="translate(11.496062, 9.026143)"></g>
        </g>
    </g>
</svg>