<?xml version="1.0" encoding="UTF-8"?>
<svg width="120px" height="60px" viewBox="0 0 120 60" version="1.1" xmlns="http://www.w3.org/2000/svg" xmlns:xlink="http://www.w3.org/1999/xlink">
    <title>Group 96</title>
    <defs>
        <polygon id="path-1" points="0 0 58.2968626 0 58.2968626 43.0729766 0 43.0729766"></polygon>
    </defs>
    <g id="landing-page-designs" stroke="none" stroke-width="1" fill="none" fill-rule="evenodd">
        <g id="Group-96">
            <rect id="Rectangle" fill="#FFFFFF" x="0" y="0" width="120" height="60"></rect>
            <g id="Clipped" transform="translate(31.351569, 8.463512)">
                <mask id="mask-2" fill="white">
                    <use xlink:href="#path-1"></use>
                </mask>
                <g id="Path"></g>
                <g id="Group" mask="url(#mask-2)" fill-rule="nonzero">
                    <g transform="translate(-0.012562, 0.000000)" id="Path">
                        <path d="M29.4901126,19.0730673 C35.0512273,19.0730673 39.5584059,14.8031374 39.5584059,9.5359386 C39.5584059,4.26992982 35.0512273,0 29.4901126,0 C23.9302541,0 19.4230755,4.26992982 19.4230755,9.5359386 C19.4230755,14.8031374 23.9302541,19.0730673 29.4901126,19.0730673" fill="#00A3DA"></path>
                        <path d="M36.9166566,17.2522778 C34.9984677,19.2218246 31.6155714,21.1925614 27.275465,21.1925614 C23.908899,21.1925614 21.0096326,19.9525205 19.1655584,18.5744327 C8.17397184,19.6669064 0,21.2163626 0,21.2163626 L0,25.4327398 L58.3094245,25.4267895 L58.3094245,16.7334123 C58.3094245,16.7334123 48.3190144,16.6750994 36.9166566,17.2522778" fill="#00A3DA"></path>
                        <polyline fill="#002E51" points="6.92658379 37.7605556 6.92658379 42.896848 0 42.896848 0 29.2302164 6.92658379 29.2302164 6.92658379 35.3804386 6.96678159 35.3804386 11.04309 29.2302164 19.3489609 29.2302164 13.2677871 36.2932135 19.0060234 42.896848 11.0795192 42.896848 6.97431868 37.7605556 6.92658379 37.7605556"></polyline>
                        <path d="M58.3094245,42.3327602 C56.6751326,42.8052135 54.5270625,43.0848772 52.6038489,43.0848772 C45.7513798,43.0848772 40.7203736,41.2402865 40.7203736,35.8731228 C40.7203736,31.0236345 45.5968695,28.9160409 52.2621676,28.9160409 C54.115035,28.9160409 56.4691188,29.1100205 58.3094245,29.6669678 L58.3069121,34.3641287 C56.9426992,33.5810702 55.5784863,33.0931462 53.6251243,33.0931462 C51.0826133,33.0931462 48.5413585,34.2796345 48.5413585,36.0016491 C48.5413585,37.7272339 51.0713077,38.910152 53.6251243,38.910152 C55.5470817,38.910152 56.9426992,38.4055673 58.3069121,37.6582105 L58.3094245,42.3327602" fill="#002E51"></path>
                    </g>
                </g>
            </g>
            <path d="M58.9441241,43.9332985 L62.4023331,43.9332985 C63.739776,43.9332985 64.2624113,43.4090909 64.2624113,42.6057123 C64.2624113,41.6840822 63.7347385,41.2244862 62.499304,41.2244862 L58.9441241,41.2244862 L58.9441241,43.9332985 Z M58.9441241,49.1546499 L62.5647909,49.1546499 C63.9211241,49.1546499 64.3845695,48.6097179 64.3845695,47.8063393 C64.3845695,47.0029606 63.9173461,46.4251132 62.5799032,46.4251132 L58.9441241,46.4251132 L58.9441241,49.1546499 Z M52,38 L66.0368529,38 C69.6839663,38 70.8791012,39.3726924 70.8791012,41.5097527 C70.8791012,43.9016022 68.6701796,44.9414838 66.402068,45.0585162 L66.402068,45.0987461 C68.730629,45.2742947 71,45.5290839 71,48.3524904 C71,50.1969697 69.8048651,52 65.793796,52 L52,52 L52,38 L52,38 Z" id="Shape" fill="#002E51" fill-rule="nonzero"></path>
        </g>
    </g>
</svg>