<?xml version="1.0" encoding="UTF-8"?>
<svg width="120px" height="60px" viewBox="0 0 120 60" version="1.1" xmlns="http://www.w3.org/2000/svg" xmlns:xlink="http://www.w3.org/1999/xlink">
    <title>Group 95</title>
    <g id="landing-page-designs" stroke="none" stroke-width="1" fill="none" fill-rule="evenodd">
        <g id="Group-79">
            <rect id="Rectangle" fill="#FFFFFF" x="0" y="0" width="120" height="60"></rect>
            <path d="M30.8101364,15.8991437 C29.7318878,17.1826832 28.0066902,18.1950523 26.2814926,18.0504282 C26.0658429,16.3149382 26.9104709,14.47098 27.8988654,13.3320647 C28.9771139,12.0123692 30.8640488,11.0723121 32.3915675,11 C32.5712756,12.8078021 31.8704141,14.5794481 30.8101364,15.8991437 M32.3735967,18.3939106 C29.8756543,18.2492864 27.7371281,19.8220742 26.5510547,19.8220742 C25.3470105,19.8220742 23.5319588,18.4662226 21.5551699,18.5023787 C18.9853442,18.5385347 16.5952267,20.0028544 15.2833576,22.3349191 C12.5877363,26.9990485 14.5824961,33.9048525 17.1882634,37.7012369 C18.4641908,39.5813511 19.9917095,41.6422455 22.0044401,41.5699334 C23.9093458,41.4976213 24.6641198,40.32255 26.9643833,40.32255 C29.2826176,40.32255 29.9475375,41.5699334 31.9602681,41.5337774 C34.0448819,41.4976213 35.356751,39.6536632 36.6326784,37.773549 C38.0883139,35.6403425 38.6813506,33.5613701 38.7172922,33.452902 C38.6813506,33.416746 34.691831,31.8801142 34.6558894,27.2521408 C34.6199478,23.3834443 37.800781,21.5394862 37.9445474,21.4310181 C36.1474666,18.755471 33.3440204,18.4662226 32.3735967,18.3939106 M46.8041561,13.1512845 L46.8041561,41.3349191 L51.1530918,41.3349191 L51.1530918,31.699334 L57.1733127,31.699334 C62.6723802,31.699334 66.5361041,27.9029496 66.5361041,22.4072312 C66.5361041,16.9115128 62.7442634,13.1512845 57.3170792,13.1512845 L46.8041561,13.1512845 Z M51.1530918,16.8392008 L56.1669475,16.8392008 C59.9408173,16.8392008 62.0973143,18.8639391 62.0973143,22.4253092 C62.0973143,25.9866794 59.9408173,28.0294957 56.1489766,28.0294957 L51.1530918,28.0294957 L51.1530918,16.8392008 Z M74.4792015,41.5518554 C77.2107644,41.5518554 79.7446485,40.1598478 80.8947802,37.9543292 L80.9846343,37.9543292 L80.9846343,41.3349191 L85.0100954,41.3349191 L85.0100954,27.3063749 C85.0100954,23.2388202 81.7753499,20.6175071 76.7974358,20.6175071 C72.178938,20.6175071 68.7644844,23.2749762 68.6386887,26.9267364 L72.556325,26.9267364 C72.8797996,25.1912464 74.4792015,24.0523311 76.6716402,24.0523311 C79.3313199,24.0523311 80.822897,25.2997146 80.822897,27.5956232 L80.822897,29.150333 L75.3957128,29.4757374 C70.3459155,29.7830637 67.6143526,31.8620362 67.6143526,35.4776403 C67.6143526,39.1294006 70.4357696,41.5518554 74.4792015,41.5518554 L74.4792015,41.5518554 Z M75.6473041,38.2074215 C73.3290698,38.2074215 71.8554635,37.0865842 71.8554635,35.3691722 C71.8554635,33.5975262 73.2751573,32.567079 75.9887495,32.4043768 L80.822897,32.0970504 L80.822897,33.6879163 C80.822897,36.3273073 78.5945167,38.2074215 75.6473041,38.2074215 L75.6473041,38.2074215 Z M90.3833672,49 C94.6244781,49 96.6192379,47.3729781 98.3624063,42.4376784 L106,20.8886775 L101.579181,20.8886775 L96.4575006,37.5385347 L96.3676465,37.5385347 L91.2459661,20.8886775 L86.6993514,20.8886775 L94.067383,41.4072312 L93.6720252,42.6546147 C93.0071053,44.7697431 91.9288568,45.583254 90.0059802,45.583254 C89.6645349,45.583254 88.999615,45.547098 88.7300528,45.510942 L88.7300528,48.8915319 C88.9816442,48.963844 90.0598927,49 90.3833672,49 L90.3833672,49 Z" id="Shape" fill="#000000" fill-rule="nonzero"></path>
        </g>
    </g>
</svg>