<?xml version="1.0" encoding="UTF-8"?>
<svg width="120px" height="60px" viewBox="0 0 120 60" version="1.1" xmlns="http://www.w3.org/2000/svg" xmlns:xlink="http://www.w3.org/1999/xlink">
    <title>Group 99</title>
    <g id="landing-page-designs" stroke="none" stroke-width="1" fill="none" fill-rule="evenodd">
        <g id="Group-99">
            <rect id="Rectangle" fill="#FFFFFF" x="0" y="0" width="120" height="60"></rect>
            <polygon id="Path" fill="#D13239" fill-rule="nonzero" points="33.5445445 30.6013876 40.8678679 30.5866278 40.6021021 32.2544835 34.4747247 38.0845987 39.6128629 38.0845987 39.3175676 39.8705327 31.758008 39.8705327 32.0680681 38.0255595 37.9296797 32.4020814 33.2492492 32.4020814"></polygon>
            <path d="M25.5568068,27.752749 C25.3943944,27.5903914 25.1729229,27.4575533 24.9219219,27.3542348 C24.6561562,27.2509163 24.3608609,27.1771174 24.0655656,27.1180783 C23.6964464,27.0590391 23.3420921,27.0295196 23.0910911,27.0147598 C22.8548549,27 22.7072072,27 22.7072072,27 L17.1261261,27 L15,39.8705327 L16.9932432,39.8705327 L17.7757758,35.1031221 L21.6441441,35.1178819 C21.6441441,35.1178819 23.1501502,35.176921 24.2132132,34.6160492 C25.2762763,34.0551773 25.5715716,32.771076 25.5715716,32.771076 C25.5715716,32.771076 25.6896897,32.2987629 25.793043,31.7083715 C25.8963964,31.0737007 26.0145145,30.3061919 26.0588088,29.8929179 C26.0883383,29.7158005 26.1031031,29.5977222 26.1031031,29.5977222 C26.1031031,29.5977222 26.1326326,29.4648841 26.1326326,29.2582471 C26.1326326,28.9778112 26.0883383,28.5497774 25.8668669,28.1365035 C25.7635135,28.0036654 25.6749249,27.8708273 25.5568068,27.752749 L25.5568068,27.752749 Z" id="Path" fill="#D13239" fill-rule="nonzero"></path>
            <path d="M24.0212713,30.025756 C24.0212713,30.0552755 23.8440941,31.0884605 23.6078579,32.3135227 C23.5192693,32.7858358 23.1649149,33.0367521 22.7515015,33.1253109 C22.0723223,33.2729087 21.3340841,33.2433891 21.3340841,33.2433891 L18.1006006,33.2286293 L18.8093093,28.9482916 L21.7327327,28.9630514 L22.2052052,28.9630514 C22.5152653,28.9630514 22.9286787,28.9778112 23.283033,29.0220906 C23.5783283,29.0663699 23.8145646,29.1254091 23.8883884,29.2139678 C23.9917417,29.3320461 24.0212713,29.4944037 24.036036,29.6420015 C24.0508008,29.8338788 24.0212713,30.0109962 24.0212713,30.025756 L24.0212713,30.025756 Z" id="Path" fill="#FFFFFF" fill-rule="nonzero"></path>
            <polygon id="Path" fill="#D13239" fill-rule="nonzero" points="50.775025 27 52.6944444 27 50.5535536 39.8705327 48.6341341 39.8705327"></polygon>
            <polygon id="Path" fill="#D13239" fill-rule="nonzero" points="61.007007 30.6013876 62.8526026 30.5866278 63.5022523 37.1252126 66.3223223 30.5866278 68.5960961 30.5866278 69.2605105 37.1547322 72.0805806 30.5866278 74 30.5866278 69.9396897 39.8705327 67.6806807 39.8705327 67.031031 33.3762272 64.1666667 39.8705327 61.951952 39.8705327"></polygon>
            <path d="M47.2462462,30.6751865 C46.7147147,30.4980691 45.7845345,30.4685495 44.9872372,30.4685495 C44.2194695,30.4833093 43.8798799,30.5128289 43.5845846,30.571868 C43.5845846,30.571868 42.2262262,30.7637452 41.4584585,31.7231313 C40.6906907,32.6825173 40.4544545,34.763647 40.4544545,34.763647 C40.4544545,34.763647 39.9967467,37.0661735 40.1296296,37.8336823 C40.2625125,38.6011912 40.4987487,39.3096608 41.3698699,39.6491359 C42.240991,39.988611 42.9792292,39.9738512 42.9792292,39.9738512 C42.9792292,39.9738512 44.5295295,40.0919295 45.6959459,39.8262533 C46.8623624,39.5605772 47.4824825,38.7340292 47.4824825,38.7340292 C47.4824825,38.7340292 47.763013,38.3797944 47.954955,37.9517606 C48.1468969,37.5237268 48.205956,37.2432909 48.2207207,37.1990116 L48.3388388,36.6971789 L46.3455956,36.6971789 C46.3455956,36.6971789 46.2422422,38.0107997 45.1644144,38.128878 C44.0865866,38.2469563 43.5255255,38.202677 43.3040541,38.1879172 C43.0973473,38.1731574 41.9456957,38.2321965 42.0342843,37.2728105 L42.0342843,37.2137713 C42.0785786,36.1215472 42.2114615,35.8411113 42.2114615,35.8411113 L48.456957,35.8263515 L48.7227227,34.2765741 C49.0623123,32.5201597 48.8408408,31.191779 47.2462462,30.6751865 L47.2462462,30.6751865 Z" id="Path" fill="#D13239" fill-rule="nonzero"></path>
            <path d="M46.8180681,34.0551773 L42.5362863,34.0551773 L42.6986987,33.3762272 C42.6986987,33.3762272 42.8463463,32.8448749 43.1416416,32.6234782 C43.4369369,32.4020814 43.8208208,32.357802 44.1751752,32.3282825 C44.5295295,32.2987629 45.4744745,32.224964 46.257007,32.3873216 C46.508008,32.4316009 46.759009,32.5791988 46.8180681,32.8005956 C46.9804805,33.2876685 46.8180681,34.0551773 46.8180681,34.0551773 L46.8180681,34.0551773 Z" id="Path" fill="#FFFFFF" fill-rule="nonzero"></path>
            <path d="M42.0065988,36.8749274 L42.0065988,36.9199597 C41.9917515,36.9950135 42.0065988,36.8749274 42.0065988,36.8749274 Z" id="Path" fill="#D13239" fill-rule="nonzero"></path>
            <path d="M53.8398986,36.8899382 L53.8398986,36.9349705 L53.8398986,36.8899382 Z" id="Path" fill="#D13239" fill-rule="nonzero"></path>
            <path d="M59.0364544,30.2101506 C58.5019515,30.0300215 57.5665714,30 56.7648171,30 C55.9927574,30.0150108 55.6512695,30.0450323 55.3543234,30.1050753 C55.3543234,30.1050753 53.9883716,30.3002152 53.2163119,31.2759145 C52.4442522,32.2516138 52.2066954,34.3681308 52.2066954,34.3681308 C52.2066954,34.3681308 51.746429,36.7098091 51.8800547,37.4903685 C52.0136804,38.270928 52.2512373,38.9914444 53.1272281,39.3366918 C54.0032189,39.6819393 54.745584,39.6669285 54.745584,39.6669285 C54.745584,39.6669285 56.3045508,39.7870146 57.4774876,39.5168209 C58.6504245,39.2316165 59.2740112,38.4060248 59.2740112,38.4060248 C59.2740112,38.4060248 59.5561099,38.0457666 59.7491249,37.6104546 C59.9421398,37.1751426 60.001529,36.8899382 60.0163763,36.8449059 L60.1351547,36.3345401 L58.1307689,36.3345401 C58.1307689,36.3345401 58.0268378,37.6704976 56.9429848,37.7905837 C55.8591317,37.9106698 55.2949342,37.8656375 55.0722247,37.8656375 C54.8643625,37.8506267 53.7062729,37.9106698 53.7953567,36.9349705 L53.7953567,36.8749274 C53.8398986,35.7641313 53.9735243,35.4789269 53.9735243,35.4789269 L60.2539331,35.4639161 L60.5211846,33.8877865 C60.8626725,32.1015062 60.6548103,30.7355272 59.0364544,30.2101506 L59.0364544,30.2101506 Z" id="Path" fill="#D13239" fill-rule="nonzero"></path>
            <path d="M58.6058826,33.6476143 L54.300165,33.6476143 L54.4634853,32.9571194 C54.4634853,32.9571194 54.6119583,32.4167321 54.9089044,32.1915708 C55.2058504,31.9664094 55.5918803,31.9213771 55.9482155,31.8913556 C56.3045508,31.8613341 57.2547781,31.7862803 58.0416851,31.9513986 C58.2940892,31.9964309 58.5464934,32.1465385 58.6058826,32.3716999 C58.7692029,32.8670549 58.6058826,33.6476143 58.6058826,33.6476143 L58.6058826,33.6476143 Z" id="Path" fill="#FFFFFF" fill-rule="nonzero"></path>
            <path d="M76.318714,30.1350968 L77.5510401,37.0400458 L81.0401561,30.1350968 L83,30.1501076 L77.9667646,40.012176 C77.9667646,40.012176 77.0610791,41.7984563 76.4968817,42.248779 C75.9326842,42.6991018 75.5911962,42.9092524 75.1309299,42.9542847 C74.6706635,42.9993169 74.4776486,43.0293385 74.0470768,42.9542847 L73.5719631,42.8642201 L73.8689092,41.1079614 C73.8689092,41.1079614 74.6558162,41.2580689 75.1160826,41.0629291 C75.5763489,40.8828 75.9475315,40.072219 75.9475315,40.072219 L76.1850883,39.6669285 L74.3588702,30.1050753 L76.318714,30.1350968 L76.318714,30.1350968 Z" id="Path" fill="#D13239" fill-rule="nonzero"></path>
            <path d="M83.9379752,31.4730607 L85.9515806,31.4730607 L86.070028,30.67601 C86.070028,30.67601 86.2921168,29.2322954 86.7659064,28.9615989 C86.9139656,28.8713668 87.1656663,28.7961733 87.4617847,28.7360185 C87.9947979,28.6457864 88.6610644,28.6307477 89.2088836,28.6457864 C90.0528211,28.6758637 90.3637455,28.6909024 91.222489,28.7811346 C92.0812325,28.8864055 91.8591437,29.7135336 91.8591437,29.7135336 L91.6962785,30.9617452 C91.6962785,30.9617452 91.6222489,31.5181768 91.4297719,31.8640668 C91.2521008,32.1798793 90.7783113,32.3904211 90.4969988,32.4806532 C89.8307323,32.7062336 87.5506202,33.2927427 87.5506202,33.2927427 L85.7591036,33.8190969 C85.7591036,33.8190969 84.6634654,34.1499482 84.0416166,34.8266894 C83.4197679,35.5184693 83.1828731,36.3004814 83.0940376,36.7215648 C83.0052021,37.1276095 82.5314126,39.9699226 82.5314126,39.9699226 L92.1996799,39.9699226 L92.5254102,38.0148924 L84.8855542,38.0299311 L85.0188075,37.2328804 C85.0188075,37.2328804 85.1076431,36.4057522 85.4333733,36.1350558 C85.5370148,36.0448236 85.5814326,35.9395527 86.2032813,35.7139723 C86.5734294,35.5786241 87.8171269,35.2477728 87.8171269,35.2477728 L90.7042817,34.4507221 C90.7042817,34.4507221 92.2737095,34.0446773 92.8955582,33.1573944 C93.517407,32.2851502 93.7543017,30.6158552 93.7543017,30.6158552 C93.7543017,30.6158552 93.9171669,28.9916763 93.7987195,28.4803607 C93.6654662,27.9690451 93.1916767,27.3674974 92.6290516,27.0968009 C92.0516206,26.8411431 91.4593838,26.6757175 89.7122849,26.7057949 C87.979992,26.7358723 87.1064426,26.8110657 86.2328932,27.141917 C85.3445378,27.4727683 84.8411365,28.074316 84.5154062,28.9164828 C84.1452581,29.743611 83.9379752,31.4730607 83.9379752,31.4730607 L83.9379752,31.4730607 Z" id="Path" fill="#B3B2B1" fill-rule="nonzero"></path>
            <polygon id="Path" fill="#B3B2B1" fill-rule="nonzero" points="102.134454 35.1274633 103.496599 26.8862592 101.098039 26.8862592 93.6210484 35.0372311 93.2805122 37.0975321 99.809924 37.0975321 99.3361345 40 101.34974 40 101.823529 37.0975321 103.67427 37.0975321 104 35.1274633 102.134454 35.1274633"></polygon>
            <polygon id="Path" fill="#FFFFFF" fill-rule="nonzero" points="100.15046 35.1274633 95.9307723 35.1274633 101.068427 29.5631467"></polygon>
            <path d="M30,27.9540064 L36.1592637,27.9540064 C36.1592637,27.9540064 37.5362145,26.8261044 38.5134054,26.0892084 C39.4905962,25.3673512 41.2821128,24.2093717 41.2821128,24.2093717 L37.8027211,22.5551155 C37.8027211,22.5551155 34.8563425,24.4048748 33.6126451,25.277119 C32.3985594,26.0892084 30,27.9540064 30,27.9540064 L30,27.9540064 Z" id="Path" fill="#B3B2B1" fill-rule="nonzero"></path>
            <path d="M43.2216887,23.0513923 L40.3641457,21.0963622 C40.3641457,21.0963622 42.9403762,19.6075315 46.3901561,18.208933 C49.8251301,16.8253732 51.6610644,16.2388642 51.6610644,16.2388642 L52.2384954,19.0059838 C52.2384954,19.0059838 48.9367747,20.1338858 47.0416166,21.0362074 C45.0872349,21.8934129 43.2216887,23.0513923 43.2216887,23.0513923 L43.2216887,23.0513923 Z" id="Path" fill="#B3B2B1" fill-rule="nonzero"></path>
            <path d="M54.3557423,18.404436 L53.8523409,15.5771616 C53.8523409,15.5771616 57.3761505,14.6297239 60.6038415,14.0131375 C63.8315326,13.3965511 68.1104442,13.1108159 68.1104442,13.1108159 L66.6890756,17.4870757 C66.6890756,17.4870757 62.9283713,16.9607214 59.3897559,17.4569983 C56.6506603,17.7878496 54.3557423,18.404436 54.3557423,18.404436 Z" id="Path" fill="#B3B2B1" fill-rule="nonzero"></path>
            <path d="M68.9395758,17.8630431 L71.3233293,13.005545 C71.3233293,13.005545 76.535014,12.9002742 81.0360144,13.6070928 C85.5370148,14.3139114 89.6530612,15.3966973 89.5642257,15.4418134 L78.1488595,21.5024069 C78.1488595,21.5024069 75.4837935,19.7879958 72.1672669,18.7352873 C70.3017207,18.1788556 68.9395758,17.8630431 68.9395758,17.8630431 L68.9395758,17.8630431 Z" id="Path" fill="#B3B2B1" fill-rule="nonzero"></path>
            <path d="M80.2068828,22.8258119 L82.7090836,24.7658034 L103.318928,24.7658034 C103.318928,24.7658034 103.27451,24.0890622 102.726691,23.1265858 C102.386154,22.5250381 101.764306,21.8934129 101.112845,21.2317104 C100.87595,20.9910913 99.9283713,20.2391566 99.2176871,19.7729571 C97.3965586,18.5698617 96.37495,18.1036622 94.4945978,17.2464566 L80.2068828,22.8258119 Z" id="Path" fill="#B3B2B1" fill-rule="nonzero"></path>
            <path d="M30.8484848,31 C30.0606061,31 29.3030303,31.3019169 28.6666667,31.6325879 L28.7727273,31 L26.6818182,31 L25,40 L27.1060606,40 L28.030303,35.0111821 C28.2272727,34.0047923 29.0151515,32.7539936 30.5757576,32.7539936 L31.6666667,32.7539936 L32,31 L30.8484848,31 L30.8484848,31 Z" id="Path" fill="#D13239" fill-rule="nonzero"></path>
        </g>
    </g>
</svg>