<?xml version="1.0" encoding="UTF-8"?>
<svg width="120px" height="60px" viewBox="0 0 120 60" version="1.1" xmlns="http://www.w3.org/2000/svg" xmlns:xlink="http://www.w3.org/1999/xlink">
    <title>Group 102</title>
    <g id="landing-page-designs" stroke="none" stroke-width="1" fill="none" fill-rule="evenodd">
        <g id="Group-102">
            <rect id="Rectangle" fill="#FFFFFF" x="0" y="0" width="120" height="60"></rect>
            <path d="M92.2852953,52 L27.7147047,52 C25.6605786,51.9808 24,50.3104 24,48.2464 L24,7.7536 C24,5.68 25.679776,4 27.7530996,4 L92.2469004,4 C94.320224,4 96,5.68 96,7.7536 L96,48.256 C95.9904013,50.3104 94.3394214,51.9808 92.2852953,52" id="Path" fill="#EF809F" fill-rule="nonzero"></path>
            <path d="M45.7711179,47 C47.4298857,47 48.6983552,45.9112227 48.6983552,44.3162595 C48.6983552,42.8359045 47.6250348,42.1960091 46.3077781,41.8139819 C45.4686367,41.575215 44.941734,41.3937521 44.941734,40.8111608 C44.941734,40.3240762 45.30276,39.9420491 45.87845,39.9420491 C46.3663228,39.9420491 46.7273488,40.2190188 46.9908001,40.6392486 L48.3666016,39.7892383 C47.9372735,38.8628225 46.9712852,38.3852886 45.9272372,38.3852886 C44.2684695,38.3852886 43.2146641,39.5504713 43.2146641,40.9066676 C43.2146641,41.9858941 43.8781712,42.8168031 45.5076666,43.2847863 C46.3955952,43.533104 46.9615277,43.7050162 46.9615277,44.392665 C46.9615277,45.042111 46.4834123,45.4432395 45.7906328,45.4432395 C45.0490661,45.4432395 44.4831335,44.9752563 44.1416225,44.5454758 L43,45.6629051 C43.6147198,46.4842634 44.6099805,47 45.7711179,47 M52.4744912,47 C50.7181489,47 49.2935601,45.6247024 49.2935601,43.9533338 C49.2935601,42.2819652 50.7181489,40.9066676 52.4744912,40.9066676 C54.2308336,40.9066676 55.6554224,42.2819652 55.6554224,43.9533338 C55.6554224,45.6247024 54.2308336,47 52.4744912,47 M52.4744912,45.4718916 C53.32339,45.4718916 53.9966546,44.8128948 53.9966546,43.9533338 C53.9966546,43.0937728 53.32339,42.434776 52.4744912,42.434776 C51.615835,42.434776 50.9523279,43.0937728 50.9523279,43.9533338 C50.9523279,44.8224455 51.6255924,45.4718916 52.4744912,45.4718916 M59.763312,40.0184545 L59.763312,38.4903461 L59.5193755,38.4903461 C57.4995818,38.4903461 56.5043212,39.8083396 56.5043212,41.3555494 L56.5043212,46.8471892 L58.1630889,46.8471892 L58.1630889,44.4404183 C58.1630889,43.6381614 58.7973237,43.0651207 59.7145247,43.0460194 L59.7145247,41.4988096 C59.060775,41.4988096 58.5338723,41.6898231 58.1630889,42.0718502 L58.1630889,41.4510562 C58.1630889,40.4386843 58.8363535,39.9802518 59.763312,40.0184545 M63.3833287,47 C61.6269863,47 60.2023975,45.6247024 60.2023975,43.9533338 C60.2023975,42.2819652 61.6269863,40.9066676 63.3833287,40.9066676 C65.139671,40.9066676 66.5642598,42.2819652 66.5642598,43.9533338 C66.5642598,45.6247024 65.139671,47 63.3833287,47 M63.3833287,45.4718916 C64.2419849,45.4718916 64.9054921,44.8128948 64.9054921,43.9533338 C64.9054921,43.0937728 64.2322275,42.434776 63.3833287,42.434776 C62.5344299,42.434776 61.8611653,43.0937728 61.8611653,43.9533338 C61.8611653,44.8224455 62.5344299,45.4718916 63.3833287,45.4718916 M69.0719264,41.7280258 L69.0719264,41.0690291 L67.4619459,41.0690291 L67.4619459,46.8471892 L69.1207137,46.8471892 L69.1207137,44.2112021 C69.1207137,43.2561343 69.6964037,42.7212963 70.6916643,42.7212963 L70.6916643,40.983073 C69.9403401,40.9544209 69.40368,41.2027386 69.0719264,41.7280258 M73.3066629,43.8960297 L73.3066629,42.4825294 C73.6774463,42.8645565 74.1945916,43.0555701 74.8580987,43.0555701 L74.8580987,41.5179109 C73.9604126,41.4988096 73.3066629,40.9066676 73.3066629,40.123512 L73.3066629,39.2161976 L71.6478952,39.2161976 L71.6478952,43.9915365 C71.6478952,45.5387463 72.6333984,46.8567398 74.6629495,46.8567398 L74.906886,46.8567398 L74.906886,45.3286314 C73.9799275,45.3572834 73.3066629,44.9084016 73.3066629,43.8960297 M76.8876498,46.9426959 C77.4926122,46.9426959 78,46.4556114 78,45.8539187 C78,45.2617766 77.5023697,44.7651414 76.8876498,44.7651414 C76.27293,44.7651414 75.7752997,45.252226 75.7752997,45.8539187 C75.7752997,46.4556114 76.27293,46.9426959 76.8876498,46.9426959 M57.7727906,26.5137961 C58.2899359,27.0104313 58.2996933,27.822239 57.7923055,28.3284249 L57.694731,28.4334823 C57.1873432,28.9396683 56.3579593,28.9492189 55.8408141,28.4525837 L52.9135768,25.6160324 C52.1037078,24.8233261 51.9963758,23.849157 52.5037636,23.3334204 L52.6013382,23.2283629 C53.0209088,22.7985824 53.7136883,22.7603797 54.1918037,23.1233055 C54.4162253,23.2952177 54.7479788,23.257015 54.9333705,23.0373494 C55.1090047,22.8176838 55.0699749,22.4929607 54.8455534,22.3114979 C53.9381098,21.6142984 52.640368,21.7002545 51.8402565,22.5025114 L51.7426819,22.6075689 C50.7962085,23.5626367 50.9816002,25.1767012 52.1622526,26.3323332 L55.0992473,29.1975366 C56.0457207,30.0857496 57.5386117,30.0666482 58.4558127,29.1497832 L58.5631447,29.0447257 C59.4608308,28.1278606 59.4413159,26.6761576 58.5143574,25.7783939 C58.3094508,25.5778297 57.9776972,25.5778297 57.7727906,25.7879446 C57.5581266,25.9885088 57.5581266,26.3132319 57.7727906,26.5137961 M56.0164483,11.1276541 L57.2166156,20.7738387 C57.2458879,21.0508084 57.5093393,21.2609233 57.802063,21.2227206 C58.0850293,21.1940686 58.2996933,20.9362003 58.2606635,20.6496799 L57.0604962,10.9652926 L57.0507388,10.9079886 C56.8458322,10.1057316 57.35322,9.2079679 58.036242,9.06470774 C58.4167828,8.98830231 58.8168386,9.05515706 59.1388347,9.26527197 C59.4608308,9.47538688 59.6852523,9.80010993 59.763312,10.1725864 L61.8514079,18.9019059 C61.9197101,19.1788755 62.2026763,19.3507877 62.4856426,19.283933 C62.7686089,19.2170782 62.9442431,18.9401086 62.8759409,18.6631389 L60.7976025,9.96247145 C60.6707555,9.33212671 60.2804572,8.76863672 59.7242821,8.40571097 C59.1681071,8.04278521 58.4753276,7.9186264 57.8215779,8.05233589 C56.5335935,8.31975487 55.6944522,9.79055925 56.0164483,11.1276541" id="Shape" fill="#FFFFFF" fill-rule="nonzero"></path>
            <path d="M66.6471177,22.6768089 L68.9457741,10.9726792 C69.2106398,9.71521071 68.482259,8.44806939 67.2619846,8.08050168 C65.8998179,7.73227964 64.5281916,8.54479774 64.1781904,9.91834023 L61.6335872,18.8270208 C61.5579113,19.107533 61.7092632,19.397718 61.9835884,19.4751007 C62.2579137,19.5524834 62.5416984,19.397718 62.6173744,19.1172058 L65.1619775,10.1988524 C65.3795458,9.3766615 66.1930621,8.88334694 66.9876594,9.08647647 C67.6687427,9.29927882 68.0944199,10.0247414 67.943068,10.7598768 L65.6444116,22.4736794 C65.5876546,22.7541916 65.767385,23.0347038 66.0417102,23.0927408 C66.325495,23.1411049 66.5998202,22.9573211 66.6471177,22.6768089 M60.8673684,33.9553339 C57.2254643,33.9553339 54.1889675,31.2275946 54.1889675,27.3487879 C54.1889675,27.0586029 53.9619397,26.8264549 53.678155,26.8264549 C53.3943703,26.8264549 53.1673425,27.0586029 53.1673425,27.3487879 C53.1673425,31.8369831 56.6957327,35 60.8673684,35 C61.1511532,35 61.378181,34.767852 61.378181,34.4776669 C61.378181,34.1874819 61.1511532,33.9553339 60.8673684,33.9553339 M59.0700651,24.833851 C58.9943892,25.124036 58.8146588,25.3852025 58.568712,25.5496407 L58.4551981,25.6173506 C57.8687097,26.0236096 57.0741124,25.8688443 56.6768138,25.2691285 L54.4443738,21.8739636 C53.8389664,20.9260259 53.9146423,19.9393967 54.5011307,19.5234649 L54.6051852,19.4460822 C55.3619445,19.0011318 55.9957304,19.339681 56.6484353,20.3166373 L58.5119551,23.1604506 C58.6727664,23.4022715 58.9849297,23.4603085 59.2214169,23.3055431 C59.4579042,23.1507778 59.5146612,22.8219014 59.3633093,22.5800805 L57.4997895,19.7362672 C56.5727594,18.3627247 55.4376204,17.7533361 54.0659941,18.5658542 L53.9241018,18.6625826 C52.8268008,19.4267365 52.6943679,21.0711184 53.5930196,22.4543337 L55.8254595,25.8591714 C56.5443809,26.9328561 57.9633046,27.2133683 59.0133081,26.4879057 L59.126822,26.410523 C59.5714181,26.1009923 59.8930408,25.6366962 60.0443927,25.1046903 C60.1200686,24.8241781 59.9592573,24.5436659 59.684932,24.4662833 C59.4200663,24.3889006 59.145741,24.5533388 59.0700651,24.833851" id="Shape" fill="#FFFFFF" fill-rule="nonzero"></path>
            <path d="M62.0567968,26.6319813 C61.0092028,27.2372091 60.3544566,28.3612037 60.2796285,30.0808193 C60.2609214,30.369023 60.4760523,30.6091928 60.7566579,30.6284064 C61.0372634,30.6380131 61.2711013,30.4266637 61.2898084,30.13846 C61.3646365,28.5821599 61.9539081,27.746369 62.8986134,27.381311 C63.4037034,27.1891751 63.9555609,27.150748 64.4419438,27.1987819 L64.5635396,27.2179955 C65.2089323,27.3428838 65.4147097,26.3533843 64.769317,26.1996757 L60.8876071,25.3062441 C59.0730247,24.7970842 58.7924191,24.1053952 59.1291458,22.9525803 C59.2788021,22.4530271 59.5687611,22.1936438 60.0270835,22.0879691 C60.326396,22.0207216 60.6537692,22.0303283 60.9717888,22.0879691 C61.0653239,22.1071827 61.1307986,22.1167895 61.1588591,22.1263963 L67.0515753,23.5385945 L67.1638175,23.5770217 C67.2573527,23.6154489 67.3602414,23.6923032 67.4631301,23.7979779 C67.8559778,24.2302835 68.0804622,25.0468607 67.96822,26.3918115 C67.5847258,31.0991391 65.4521238,34.0196036 60.3825172,33.9715696 C60.1019116,33.9715696 59.8774272,34.2021326 59.8774272,34.4807296 C59.8774272,34.7689333 60.1019116,34.9994963 60.3731636,34.9994963 C66.0601024,35.0475302 68.5481381,31.656333 68.9690464,26.4686658 C69.0999957,24.8547249 68.8100366,23.7499439 68.202058,23.0870754 C67.8653313,22.7220173 67.5098976,22.5490951 67.2386456,22.5106679 L61.4114041,21.1176832 C61.37399,21.1080764 61.2804549,21.079256 61.1495056,21.0600424 C60.7098903,20.9831881 60.2515679,20.9735813 59.8025991,21.0696492 C59.0169036,21.2521783 58.4182784,21.7613382 58.1657335,22.645163 C57.6793505,24.3071378 58.193794,25.6136614 60.6444157,26.2957436 L62.0567968,26.6319813 L62.0567968,26.6319813 Z" id="Path" fill="#FFFFFF" fill-rule="nonzero"></path>
        </g>
    </g>
</svg>