<?xml version="1.0" encoding="UTF-8"?>
<svg width="120px" height="60px" viewBox="0 0 120 60" version="1.1" xmlns="http://www.w3.org/2000/svg" xmlns:xlink="http://www.w3.org/1999/xlink">
    <title>Group 106</title>
    <g id="landing-page-designs" stroke="none" stroke-width="1" fill="none" fill-rule="evenodd">
        <g id="Group-88">
            <g id="Group-71" fill="#FFFFFF">
                <rect id="Rectangle" x="0" y="0" width="120" height="60"></rect>
            </g>
            <g id="Layer_1" transform="translate(12.000000, 16.000000)" fill-rule="nonzero">
                <path d="M21.3290811,8.61269147 L14.7610126,8.61269147 C14.7610126,7.50328228 14.6334463,6.75820569 14.3815029,6.37910284 C13.9908312,5.81947484 12.9113016,5.53884026 11.1461032,5.53884026 C9.43193143,5.53884026 8.29499701,5.69967177 7.74008372,6.02297593 C7.18517042,6.34792123 6.90771377,7.05196937 6.90771377,8.13840263 C6.90771377,9.1214442 7.15327885,9.76805252 7.64600359,10.0782276 C7.99840542,10.2997812 8.4656169,10.4277899 9.04604345,10.4671772 L10.3711381,10.5640044 C13.2110823,10.7576586 14.9842535,10.8938731 15.6906518,10.9710066 C17.9358182,11.2040481 19.5638828,11.8194748 20.5732509,12.8140044 C21.367351,13.5919037 21.8425354,14.6077681 21.9924258,15.8615974 C22.0817221,16.6115974 22.1247758,17.4600656 22.1247758,18.4037199 C22.1247758,20.5765864 21.9238589,22.1684902 21.5204305,23.1777899 C20.788519,25.0289934 19.1461032,26.1974836 16.589994,26.6881838 C15.5184373,26.8966083 13.8808053,27 11.6770979,27 C7.99840542,27 5.4343233,26.7751641 3.98644608,26.3222101 C2.21008571,25.7675055 1.03966514,24.643326 0.471995216,22.9496718 C0.156268686,22.0076586 0,20.4387309 0,18.2412473 L6.56806857,18.2412473 C6.56806857,18.4857768 6.56966315,18.6728665 6.56966315,18.8025164 C6.56966315,19.9742888 6.89655172,20.7292123 7.55032888,21.0640044 C8.00318916,21.297046 8.55012956,21.4184902 9.19274467,21.4316193 L11.6069364,21.4316193 C12.8395455,21.4316193 13.6256727,21.3676149 13.9653179,21.2363239 C14.5696631,20.9934354 14.9651186,20.5995624 15.1548734,20.0547046 C15.2553319,19.7199125 15.3047638,19.2866521 15.3047638,18.7549234 C15.3047638,17.5667396 14.8837951,16.8429978 14.0418577,16.583698 C13.7277257,16.4819475 12.2623082,16.3391685 9.6487941,16.1570022 C7.5487343,16.0027352 6.09128962,15.8550328 5.27327088,15.7106127 C3.12377915,15.297046 1.69025314,14.4452954 0.975882001,13.1537199 C0.34602352,12.0541575 0.0318915687,10.393326 0.0318915687,8.16958425 C0.0318915687,6.47757112 0.202511461,5.12035011 0.542156667,4.09956236 C0.881801874,3.07713348 1.42874228,2.30251641 2.18457245,1.77242888 C3.29280446,0.958424508 4.70879011,0.479212254 6.43412398,0.33643326 C7.86924457,0.208424508 9.46063384,0.142778993 11.2130755,0.142778993 C13.9685071,0.142778993 15.9330277,0.305251641 17.1050429,0.628555799 C19.964122,1.41958425 21.3928643,3.63347921 21.3928643,7.27188184 C21.3928643,7.57056893 21.3705402,8.01695842 21.3290811,8.61269147" id="Path" fill="#0B4A8E"></path>
                <path d="M57.2740682,13.7658643 L61.6766992,13.7658643 C63.0719554,13.7133479 63.9202711,13.6033917 64.2264301,13.4310722 C64.6426151,13.1947484 64.9232609,12.7221007 65.0619892,12.0131291 C65.1512856,11.5404814 65.1959338,10.8380744 65.1959338,9.9059081 C65.1959338,8.76531729 65.108232,7.91849015 64.9296392,7.3654267 C64.6761013,6.59080963 64.0669723,6.11980306 63.1038469,5.94748359 C62.9140921,5.92286652 62.4580427,5.90809628 61.7356986,5.90809628 L57.2740682,5.90809628 L57.2740682,13.7658643 Z M50.2132749,27 L50.2132749,0 L63.3685469,0 C65.1720151,0 66.5497309,0.150984683 67.4953159,0.454595186 C69.6591589,1.15207877 71.1102252,2.57986871 71.8532988,4.73960613 C72.2375922,5.87199125 72.4289416,7.57877462 72.4289416,9.85667396 C72.4289416,12.595733 72.2168627,14.5634573 71.795894,15.761488 C70.952362,18.131291 69.2158661,19.4967177 66.5927845,19.8495624 C66.2834363,19.9037199 64.9726928,19.9513129 62.6557704,19.9890591 L61.4837552,20.0284464 L57.2740682,20.0284464 L57.2740682,27 L50.2132749,27 L50.2132749,27 Z" id="Shape" fill="#0B4A8E"></path>
                <path d="M86.0992625,17.0743982 L82.7905123,5.36980306 L79.5806259,17.0743982 L86.0992625,17.0743982 Z M87.500897,22.3342451 L78.0609926,22.3342451 L76.7933028,27 L69.488539,27 L77.3705402,0 L88.0207295,0 L96,27 L88.8483157,27 L87.500897,22.3342451 L87.500897,22.3342451 Z" id="Shape" fill="#0B4A8E"></path>
                <path d="M40.4688061,3.79923414 C43.3805063,3.79923414 45.9796691,5.17943107 47.6890572,7.34245077 L49.210285,3.98304158 C46.8295794,1.66739606 43.5909906,0.239606127 40.0175404,0.239606127 C34.4540562,0.239606127 29.6942396,3.69912473 27.740881,8.59299781 L24.7733705,8.59299781 L23.0209288,12.4595186 L26.8383496,12.4595186 C26.8096472,12.8189278 26.7921068,13.178337 26.7921068,13.5443107 C26.7921068,13.9874179 26.8144309,14.4256018 26.8574846,14.857221 L24.9376121,14.857221 L23.1851704,18.7253829 L27.831772,18.7253829 C29.8409408,23.4961707 34.5401634,26.8473742 40.0175404,26.8473742 C42.7761611,26.8473742 45.337054,25.9956236 47.4578433,24.5415755 L47.4578433,19.8019694 C45.7500498,21.8025164 43.25294,23.0661926 40.4688061,23.0661926 C37.2142715,23.0661926 34.3504086,21.3397155 32.6840741,18.7253829 L42.4141917,18.7253829 L44.1666334,14.857221 L31.2521427,14.857221 C31.1851704,14.392779 31.1500897,13.916849 31.1500897,13.4327133 C31.1500897,13.1044858 31.1676301,12.7795405 31.197927,12.4595186 L45.2525414,12.4595186 L47.0033885,8.59299781 L32.4129958,8.59299781 C34.0267092,5.72757112 37.0293004,3.79923414 40.4688061,3.79923414" id="Path" fill="#F6BC25"></path>
                <path d="M32.4129958,8.7095186 L47.0033885,8.7095186 L46.9013355,8.54376368 L45.1504883,12.4119256 L45.2525414,12.3446389 L31.095874,12.3446389 L31.084712,12.4496718 C31.0528204,12.7762582 31.0368746,13.1061269 31.0368746,13.4327133 C31.0368746,13.9102845 31.0719554,14.3960613 31.1405222,14.8752735 L31.156468,14.9737418 L44.1666334,14.9737418 L44.0645804,14.809628 L42.3121387,18.6761488 L42.4141917,18.6088621 L32.4751844,18.6088621 L32.589994,18.7877462 C34.3424357,21.5399344 37.2892167,23.1810722 40.4688061,23.1810722 C43.1716165,23.1810722 45.7500498,21.9781182 47.542356,19.8774617 L47.3446283,19.8019694 L47.3446283,24.5415755 L47.3940602,24.4463895 C45.2142715,25.9398249 42.6645406,26.7308534 40.0175404,26.7308534 C34.7362966,26.7308534 29.9940203,23.5700219 27.9370142,18.6794311 L27.9067172,18.6088621 L23.1851704,18.6088621 L23.288818,18.7746171 L25.0412597,14.9064551 L24.9376121,14.9737418 L26.9802671,14.9737418 L26.969105,14.845733 C26.9260514,14.4091904 26.9037273,13.9693654 26.9037273,13.5443107 C26.9037273,13.2160832 26.9196731,12.8648796 26.9515647,12.4693654 L26.9611322,12.3446389 L23.0209288,12.3446389 L23.1229819,12.5103939 L24.8754236,8.64223195 L24.7733705,8.7095186 L27.8174208,8.7095186 L27.8461232,8.63730853 C28.8092486,6.22155361 30.4500698,4.16028446 32.5883994,2.67833698 C34.7777556,1.16028446 37.3482161,0.357768053 40.0175404,0.357768053 C43.4363165,0.357768053 46.6717162,1.67396061 49.1321507,4.06673961 L49.1066374,3.93380744 L47.5870042,7.29321663 L47.7751644,7.26859956 C45.9748854,4.98905908 43.3119394,3.68271335 40.4688061,3.68271335 C37.1249751,3.68271335 34.0011959,5.54212254 32.314132,8.53555799 L32.2168627,8.7095186 L32.4129958,8.7095186 Z M40.4688061,3.91411379 C43.2433725,3.91411379 45.8425354,5.19091904 47.5997608,7.41466083 L47.7145705,7.55908096 L47.7911102,7.3916849 L49.3123381,4.03227571 L49.3458242,3.95678337 L49.2884194,3.89770241 C46.7865258,1.46389497 43.4937213,0.124726477 40.0175404,0.124726477 C37.3019733,0.124726477 34.6900538,0.940371991 32.4624277,2.48632385 C30.2874228,3.9928884 28.6178991,6.09026258 27.6372334,8.55032823 L27.740881,8.47811816 L24.7016145,8.47811816 L24.6713175,8.54376368 L22.8439306,12.5760394 L26.8383496,12.5760394 L26.7267291,12.4513129 C26.6948376,12.8517505 26.6788918,13.2095186 26.6788918,13.5443107 C26.6788918,13.9775711 26.7012159,14.4239606 26.7442695,14.868709 L26.8574846,14.7423414 L24.8674507,14.7423414 L24.8371537,14.809628 L23.0831174,18.6761488 L23.0097668,18.8419037 L27.831772,18.8419037 L27.729719,18.7713348 C29.8234004,23.7472648 34.6470002,26.9622538 40.0175404,26.9622538 C42.7091888,26.9622538 45.3035679,26.1597374 47.5200319,24.6384026 L47.5694638,24.6039387 L47.5694638,19.4934354 L47.3733307,19.7248359 C45.6240781,21.7746171 43.1078334,22.9496718 40.4688061,22.9496718 C37.3641618,22.9496718 34.4891369,21.3462801 32.7781543,18.6613786 L32.6840741,18.8419037 L42.4859478,18.8419037 L42.5162448,18.7746171 L44.2686865,14.9064551 L44.3436317,14.7423414 L31.2521427,14.7423414 L31.3637632,14.8408096 C31.2983855,14.3730853 31.2633048,13.8987965 31.2633048,13.4327133 C31.2633048,13.1143326 31.2792505,12.7910284 31.3095475,12.4710066 L31.197927,12.5760394 L45.3242974,12.5760394 L45.3545944,12.5103939 L47.1070361,8.64223195 L47.1819813,8.47811816 L32.4129958,8.47811816 L32.5102651,8.65207877 C34.15587,5.72921225 37.204704,3.91411379 40.4688061,3.91411379 L40.4688061,3.91411379 Z" id="Shape" fill="#0B4A8E"></path>
            </g>
        </g>
    </g>
</svg>