<?xml version="1.0" encoding="UTF-8"?>
<svg width="120px" height="60px" viewBox="0 0 120 60" version="1.1" xmlns="http://www.w3.org/2000/svg" xmlns:xlink="http://www.w3.org/1999/xlink">
    <title>Group 103</title>
    <g id="landing-page-designs" stroke="none" stroke-width="1" fill="none" fill-rule="evenodd">
        <g id="Group-103">
            <rect id="Rectangle" fill="#FFFFFF" x="0" y="0" width="120" height="60"></rect>
            <path d="M28,6.15122313 L28,53.8487769 C28,56.1319496 29.881738,58 32.18164,58 L60.8885985,58 C82.59131,58 92,45.9406968 92,29.9377317 C92,14.017791 82.59131,2 60.8885985,2 L32.18164,2 C29.881738,2 28,3.86805041 28,6.15122313 Z" id="Path" fill="#FFFFFF" fill-rule="nonzero"></path>
            <path d="M48,14.5936473 L48,49 L63.2057613,49 C77.0123457,49 83,41.3203724 83,30.4594743 C83,20.0646221 77.0123457,12 63.2057613,12 L50.6337449,12 C49.1728395,12 48,13.1752464 48,14.5936473 Z" id="Path" fill="#CC0066" fill-rule="nonzero"></path>
            <path d="M60.875,54 L36,54 C33.7916667,54 32,52.2290862 32,50.046332 L32,9.95366795 C32,7.77091377 33.7916667,6 36,6 L60.875,6 C84.4791667,6 88,21.011583 88,29.9485199 C88,45.4543115 78.3541667,54 60.875,54 Z M36,7.31788932 C34.5208333,7.31788932 33.3333333,8.49163449 33.3333333,9.95366795 L33.3333333,50.046332 C33.3333333,51.5083655 34.5208333,52.6821107 36,52.6821107 L60.875,52.6821107 C77.5,52.6821107 86.6666667,44.6100386 86.6666667,29.9485199 C86.6666667,10.2625483 70.5,7.31788932 60.875,7.31788932 L36,7.31788932 Z" id="Shape" fill="#000000" fill-rule="nonzero"></path>
            <path d="M52.6421053,25.019656 C53.1894737,25.019656 53.6947368,25.0982801 54.1789474,25.2555283 C54.6631579,25.4127764 55.0631579,25.6683047 55.4210526,25.982801 C55.7578947,26.3169533 56.0315789,26.7297297 56.2421053,27.2014742 C56.4315789,27.6928747 56.5368421,28.2628993 56.5368421,28.9312039 C56.5368421,29.5208845 56.4526316,30.0515971 56.3052632,30.5429975 C56.1368421,31.034398 55.9052632,31.4668305 55.5894737,31.8206388 C55.2736842,32.1744472 54.8736842,32.4496314 54.3894737,32.6658477 C53.9052632,32.8624079 53.3368421,32.980344 52.6842105,32.980344 L49,32.980344 L49,25 L52.6421053,25 L52.6421053,25.019656 Z M52.5157895,31.5257985 C52.7894737,31.5257985 53.0421053,31.4864865 53.3157895,31.4078624 C53.5684211,31.3292383 53.8,31.1916462 53.9894737,30.995086 C54.1789474,30.7985258 54.3473684,30.5626536 54.4736842,30.2481572 C54.6,29.9336609 54.6631579,29.5798526 54.6631579,29.1277641 C54.6631579,28.7346437 54.6210526,28.3611794 54.5368421,28.046683 C54.4526316,27.7321867 54.3052632,27.4373464 54.1157895,27.2211302 C53.9263158,27.004914 53.6736842,26.8083538 53.3578947,26.6904177 C53.0421053,26.5724816 52.6631579,26.5135135 52.2,26.5135135 L50.8526316,26.5135135 L50.8526316,31.5454545 L52.5157895,31.5454545 L52.5157895,31.5257985 Z M64.1368421,25.019656 L64.1368421,26.4938575 L59.6315789,26.4938575 L59.6315789,28.2039312 L63.7789474,28.2039312 L63.7789474,29.5601966 L59.6315789,29.5601966 L59.6315789,31.5061425 L64.2421053,31.5061425 L64.2421053,32.980344 L57.7578947,32.980344 L57.7578947,25 L64.1368421,25 L64.1368421,25.019656 Z M70.5789474,25.019656 L73.7789474,33 L71.8210526,33 L71.1684211,31.2309582 L67.9684211,31.2309582 L67.2947368,33 L65.4,33 L68.6210526,25.019656 L70.5789474,25.019656 L70.5789474,25.019656 Z M70.6842105,29.9140049 L69.6105263,26.985258 L69.5894737,26.985258 L68.4736842,29.9140049 L70.6842105,29.9140049 Z M76.8315789,25.019656 L76.8315789,31.5257985 L81,31.5257985 L81,33 L74.9578947,33 L74.9578947,25.019656 L76.8315789,25.019656 L76.8315789,25.019656 Z" id="Shape" fill="#FFFFFF" fill-rule="nonzero"></path>
            <circle id="Oval" fill="#000000" fill-rule="nonzero" cx="40" cy="29" r="4"></circle>
            <path d="M42.9823944,49 C40.2183099,49 38,46.4442724 38,43.3049536 L38,38.8575851 C38,37.2879257 39.1091549,36 40.5,36 C41.8732394,36 43,37.2678019 43,38.8575851 L43,49 L42.9823944,49 Z" id="Path" fill="#000000" fill-rule="nonzero"></path>
        </g>
    </g>
</svg>