<?xml version="1.0" encoding="UTF-8"?>
<svg width="120px" height="60px" viewBox="0 0 120 60" version="1.1" xmlns="http://www.w3.org/2000/svg" xmlns:xlink="http://www.w3.org/1999/xlink">
    <title>Group 107</title>
    <g id="landing-page-designs" stroke="none" stroke-width="1" fill="none" fill-rule="evenodd">
        <g id="Group-71">
            <rect id="Rectangle" fill="#FFFFFF" x="0" y="0" width="120" height="60"></rect>
            <g id="Layer_1" transform="translate(26.000000, 9.000000)" fill-rule="nonzero">
                <path d="M61,7 L39.8069647,7 L30.6568527,17.229738 L30.6568527,17.229738 L28.5023693,19.6394838 L7.58830768,19.6394838 L12.83727,13.603994 L3.20091467,13.603994 C1.44080373,13.603994 0,15.0703121 0,16.8637147 L0,23.7402792 C0,25.5325694 1.44080373,27 3.20091467,27 L40.0926606,27 C41.8527716,27 44.2582192,25.9108305 45.4368549,24.5791289 L61,7" id="Path" fill="#004C81"></path>
                <path d="M64.7990853,0 C66.5591963,0 68,1.46743061 68,3.25972075 L68,10.1362853 C68,11.9296879 66.5591963,13.396006 64.7990853,13.396006 L55.1941006,13.396006 L57.3362598,10.9740224 C57.3362598,10.9740224 57.3362598,10.9740224 57.3362598,10.9740224 L60.5405356,7.35161595 L39.3475003,7.35161595 L28.0429049,20 L7,20 L22.6617382,2.41530845 C23.8448555,1.08694443 26.2525438,0 28.0126547,0 L64.7990853,0" id="Path" fill="#FFDA1A"></path>
                <path d="M7.16568473,39.1733439 C7.16568473,38.7630064 7.05996334,38.4085318 6.84852056,38.1089042 C6.63596491,37.8092766 6.35775072,37.5807471 6.01276512,37.4233157 C6.35775072,37.2648685 6.6259492,37.0322763 6.81624771,36.7245232 C7.00543336,36.4177858 7.10113904,36.0704209 7.10113904,35.68446 L7.10113904,35.4711658 C7.10113904,34.9988715 7.00098193,34.6037693 6.80289343,34.2889064 C6.60369207,33.9740436 6.32547787,33.7211376 5.96713799,33.5322198 C5.60879811,33.3433021 5.17812255,33.2072001 4.677337,33.1239138 C4.17655145,33.0416432 3.62012307,33 3.00582613,33 C2.79883477,33 2.58294056,33.0040627 2.35814349,33.0121882 C2.13334643,33.019298 1.9152265,33.0294549 1.70378371,33.0416432 C1.49234093,33.0528157 1.29759099,33.0670353 1.12064677,33.0822706 C0.94370254,33.0985216 0.79903116,33.1147726 0.686632626,33.1300079 C0.436239853,33.1696197 0.259295627,33.2407178 0.155799948,33.3433021 C0.0523042681,33.4458865 0,33.6307415 0,33.8988827 L0,41.088929 C0,41.3570703 0.0545299817,41.5419253 0.162477088,41.6445096 C0.270424195,41.747094 0.454045562,41.8181921 0.713341189,41.8578039 C0.842432574,41.8811647 0.998232522,41.9004627 1.17962817,41.9167137 C1.36102383,41.931949 1.55688662,41.9461686 1.76832941,41.9583568 C1.98088505,41.9695294 2.19789212,41.9796863 2.42268919,41.9878118 C2.64748625,41.9949216 2.86783189,42 3.08372611,42 C3.64571877,42 4.17432574,41.9603882 4.67177272,41.8811647 C5.16810683,41.8029568 5.59989526,41.662792 5.96713799,41.461686 C6.33438073,41.2605801 6.6259492,40.988376 6.84184341,40.6450739 C7.05773763,40.3027875 7.16568473,39.8711206 7.16568473,39.3500734 L7.16568473,39.1733439 Z M4.96222833,35.7789189 C4.96222833,35.904864 4.94108405,36.0257307 4.89768264,36.1394876 C4.85428123,36.2542602 4.78305839,36.3527819 4.68401414,36.4350525 C4.58496989,36.5183388 4.45142708,36.5853741 4.28227285,36.6361584 C4.11423147,36.6879585 3.90056297,36.7133506 3.64126735,36.7133506 L2.19010212,36.7133506 L2.19010212,34.6677576 C2.23350353,34.6677576 2.30027494,34.6657262 2.39041634,34.6616635 C2.48167059,34.6576007 2.57626342,34.6555693 2.67530767,34.6555693 L3.17498036,34.6555693 C3.83935585,34.6555693 4.30452998,34.7327615 4.56716418,34.8861302 C4.83091123,35.0394989 4.96222833,35.2781853 4.96222833,35.6011737 L4.96222833,35.7789189 Z M5.0145326,39.3033518 C5.0145326,39.6344656 4.88766693,39.8904187 4.63282273,40.0722266 C4.37797853,40.2530188 3.91725583,40.343415 3.25288034,40.343415 L3.03921184,40.343415 C2.93905473,40.343415 2.83555905,40.3423993 2.72761194,40.3383365 C2.61966483,40.3342738 2.51616915,40.3322424 2.4171249,40.3322424 L2.19010212,40.3322424 L2.19010212,38.1200767 L3.64126735,38.1200767 C4.1598586,38.1200767 4.51819848,38.2246925 4.71628699,38.4339239 C4.91548835,38.6431554 5.0145326,38.8889516 5.0145326,39.1733439 L5.0145326,39.3033518 Z M14.2657109,37.4344882 C14.2657109,37.00079 14.1944881,36.6320957 14.0520424,36.3284054 C13.9095968,36.0257307 13.7092825,35.7768875 13.4499869,35.583907 C13.1906913,35.3909265 12.8735271,35.2487304 12.4973815,35.1583343 C12.1212359,35.0679382 11.7005761,35.0222323 11.2342891,35.0222323 C10.8013878,35.0222323 10.3807279,35.0496558 9.97119665,35.1045029 C9.5605525,35.1603656 9.23448547,35.2152127 8.99188269,35.2700598 C8.82829275,35.3096716 8.74594135,35.3970207 8.74594135,35.5300756 L8.74594135,36.4888839 C8.74594135,36.5670918 8.76819848,36.6229545 8.8115999,36.6544408 C8.85388845,36.6859271 8.91064415,36.7011624 8.97964127,36.7011624 L9.04418696,36.7011624 C9.14768264,36.6940526 9.27788688,36.6838957 9.43257397,36.6717075 C9.58837392,36.6605349 9.76309243,36.6503781 9.95784237,36.6422526 C10.1525923,36.6341271 10.3551322,36.6290486 10.566575,36.6249859 C10.7780178,36.6209231 10.9872349,36.6188918 11.1953391,36.6188918 C11.4969233,36.6188918 11.7350746,36.6696761 11.9075674,36.7722605 C12.0800602,36.8748448 12.1668631,37.0962645 12.1668631,37.4344882 L12.1668631,37.8600609 L11.4668761,37.8600609 C10.3529065,37.8600609 9.54274679,38.0205394 9.03750982,38.3394651 C8.53227285,38.6583907 8.27965436,39.1652184 8.27965436,39.8589324 L8.27965436,39.9655795 C8.27965436,40.3515405 8.34197434,40.6745288 8.46772715,40.9345446 C8.59236711,41.1955761 8.75929563,41.4037919 8.96628699,41.562239 C9.17327835,41.7196705 9.40920398,41.8324117 9.67295103,41.8984313 C9.93558523,41.9654667 10.2104609,42 10.4953522,42 C10.8837392,42 11.2187091,41.9522627 11.499149,41.8578039 C11.7807018,41.763345 12.0455617,41.6333371 12.2959544,41.4677802 L12.2959544,41.6566979 C12.2959544,41.7196705 12.322663,41.7745175 12.3738544,41.8222548 C12.4261587,41.8689764 12.4862529,41.8933529 12.5552501,41.8933529 L14.0064153,41.8933529 C14.0754124,41.8933529 14.1366195,41.8689764 14.1878109,41.8222548 C14.2401152,41.7745175 14.2657109,41.7196705 14.2657109,41.6566979 L14.2657109,37.4344882 Z M12.205813,40.2966934 C12.0500131,40.3677914 11.8841974,40.4287326 11.7072532,40.479517 C11.5291961,40.531317 11.3422362,40.5567092 11.1430348,40.5567092 C10.8670463,40.5567092 10.6611678,40.5211601 10.527625,40.4500621 C10.3940822,40.378964 10.3273108,40.2174698 10.3273108,39.9655795 L10.3273108,39.8589324 C10.3273108,39.7167363 10.3440037,39.5907911 10.3785022,39.4800813 C10.4130008,39.3703871 10.4742079,39.2789753 10.5598979,39.2088929 C10.6467007,39.1377948 10.7635507,39.0839634 10.9104478,39.0484144 C11.0573449,39.0138811 11.2420791,38.9955987 11.4668761,38.9955987 L12.205813,38.9955987 L12.205813,40.2966934 Z M22.1959283,41.6445096 L22.1959283,37.7066922 C22.1959283,37.3359666 22.1636554,36.9875861 22.0991097,36.6605349 C22.0334512,36.3334838 21.9177141,36.0490915 21.7485598,35.8083738 C21.5805185,35.567656 21.3468185,35.3767069 21.0485729,35.2355265 C20.7514402,35.0933303 20.3686174,35.0222323 19.9023305,35.0222323 C19.4872349,35.0222323 19.1199921,35.0679382 18.8006023,35.15935 C18.4812124,35.2507618 18.1440168,35.4112403 17.7901283,35.6418012 L17.7901283,35.3553775 C17.7901283,35.2913892 17.7645326,35.2365422 17.7122283,35.1888049 C17.6610369,35.1410676 17.5998298,35.1166911 17.5308327,35.1166911 L16.0796675,35.1166911 C16.0106703,35.1166911 15.9505761,35.1400519 15.8982718,35.1877892 C15.8470804,35.2355265 15.8203718,35.2903735 15.8203718,35.3533461 L15.8203718,41.6445096 C15.8203718,41.7074822 15.8481932,41.7653764 15.9049489,41.8161607 C15.9605918,41.866945 16.0240246,41.8933529 16.0930217,41.8933529 L17.6610369,41.8933529 C17.730034,41.8933529 17.7901283,41.866945 17.8424326,41.8161607 C17.893624,41.7653764 17.9203325,41.7084979 17.9203325,41.6455253 L17.9203325,36.9957115 C18.1440168,36.8860174 18.3554595,36.7956213 18.5546609,36.7245232 C18.7538623,36.6544408 18.9474993,36.6188918 19.1377979,36.6188918 C19.3358864,36.6188918 19.4983634,36.6361584 19.6241163,36.6717075 C19.7487562,36.7072565 19.8455748,36.7681977 19.9156847,36.8545311 C19.9846819,36.9408645 20.0314218,37.0556371 20.0581304,37.1968175 C20.0837261,37.337998 20.0970804,37.5116804 20.0970804,37.7158334 L20.0970804,41.6455253 C20.0970804,41.7084979 20.1226761,41.7653764 20.1749804,41.8161607 C20.2261718,41.866945 20.286266,41.8933529 20.356376,41.8933529 L21.9232783,41.8933529 C21.9922755,41.8933529 22.0557083,41.866945 22.1113511,41.8161607 C22.1681068,41.7653764 22.1959283,41.7074822 22.1959283,41.6445096 L22.1959283,41.6445096 Z M28.5703718,41.5500508 L28.5703718,40.4977993 C28.5703718,40.4348268 28.5470018,40.3850581 28.499149,40.3495091 C28.452409,40.31396 28.3934276,40.2966934 28.3244305,40.2966934 L28.2988348,40.2966934 C28.056232,40.3200542 27.8258706,40.3403679 27.605525,40.3556032 C27.3851794,40.3718542 27.0891595,40.378964 26.7174653,40.378964 C26.5705682,40.378964 26.432574,40.3576346 26.3034826,40.31396 C26.1732783,40.2713012 26.0608798,40.1961404 25.966287,40.0894933 C25.8705813,39.9828462 25.7960199,39.8416657 25.7392642,39.6639206 C25.6836214,39.4861754 25.6557999,39.2678027 25.6557999,39.0077869 L25.6557999,38.0144453 C25.6557999,37.7534138 25.6836214,37.5350412 25.7392642,37.3583117 C25.7960199,37.1805665 25.8705813,37.0383704 25.966287,36.9317233 C26.0608798,36.8260919 26.1732783,36.750931 26.3034826,36.7072565 C26.432574,36.663582 26.5705682,36.6422526 26.7174653,36.6422526 C27.0891595,36.6422526 27.3851794,36.6503781 27.605525,36.6656134 C27.8258706,36.6818643 28.056232,36.7011624 28.2988348,36.7245232 L28.3244305,36.7245232 C28.3934276,36.7245232 28.452409,36.7072565 28.499149,36.6717075 C28.5470018,36.6361584 28.5703718,36.5874055 28.5703718,36.5244329 L28.5703718,35.4711658 C28.5703718,35.3848324 28.5492275,35.3238912 28.5058261,35.2883422 C28.4624247,35.2527931 28.3934276,35.2233382 28.2988348,35.1999774 C28.1174391,35.1603656 27.8815135,35.1207539 27.5921707,35.0811421 C27.302828,35.0415303 26.9645195,35.0222323 26.5750196,35.0222323 C25.6591385,35.0222323 24.9279916,35.2781853 24.3793532,35.7911071 C23.8307148,36.3030132 23.5558392,37.0444645 23.5558392,38.0144453 L23.5558392,39.0077869 C23.5558392,39.9767521 23.8307148,40.7182034 24.3793532,41.2311252 C24.9279916,41.7430313 25.6591385,42 26.5750196,42 C26.9645195,42 27.302828,41.9796863 27.5921707,41.9400745 C27.8815135,41.9004627 28.1174391,41.8618666 28.2988348,41.8222548 C28.3934276,41.7978783 28.4624247,41.7684234 28.5058261,41.7328744 C28.5492275,41.698341 28.5703718,41.6363842 28.5703718,41.5500508 L28.5703718,41.5500508 Z M35.7616523,38.0967159 C35.7616523,37.6234059 35.6904294,37.1978332 35.5479838,36.8199977 C35.4044252,36.4411466 35.1974339,36.1201896 34.924784,35.856111 C34.6521341,35.5920325 34.3149385,35.3868638 33.9120843,35.2406049 C33.5092302,35.0953617 33.044056,35.0222323 32.5165619,35.0222323 C31.987955,35.0222323 31.5227808,35.0953617 31.1210395,35.2406049 C30.7181854,35.3868638 30.3787641,35.5920325 30.1016627,35.856111 C29.8245614,36.1201896 29.6142315,36.4411466 29.4717858,36.8199977 C29.3282273,37.1978332 29.2570045,37.6234059 29.2570045,38.0967159 L29.2570045,38.9245006 C29.2570045,39.3978106 29.3282273,39.8233834 29.4717858,40.2022345 C29.6142315,40.58007 29.8245614,40.9020427 30.1016627,41.1661212 C30.3787641,41.4301998 30.7181854,41.6343528 31.1210395,41.7806117 C31.5227808,41.9258549 31.987955,42 32.5165619,42 C33.044056,42 33.5092302,41.9258549 33.9120843,41.7806117 C34.3149385,41.6343528 34.6521341,41.4301998 34.924784,41.1661212 C35.1974339,40.9020427 35.4044252,40.58007 35.5479838,40.2022345 C35.6904294,39.8233834 35.7616523,39.3978106 35.7616523,38.9245006 L35.7616523,38.0967159 Z M33.6628044,38.9245006 C33.6628044,39.8944814 33.2810945,40.378964 32.5165619,40.378964 C32.1381906,40.378964 31.8510736,40.2570816 31.6529851,40.0123011 C31.4548966,39.7685363 31.3569652,39.4059361 31.3569652,38.9245006 L31.3569652,38.0967159 C31.3569652,37.6162961 31.4548966,37.2557273 31.6529851,37.0150096 C31.8510736,36.7742918 32.1381906,36.6544408 32.5165619,36.6544408 C33.2810945,36.6544408 33.6628044,37.1348606 33.6628044,38.0967159 L33.6628044,38.9245006 Z M43.471524,41.6445096 L43.471524,37.7066922 C43.471524,37.3359666 43.4392511,36.9875861 43.3747054,36.6605349 C43.3090469,36.3334838 43.1933098,36.0490915 43.0241555,35.8083738 C42.8561142,35.567656 42.6224142,35.3767069 42.3252815,35.2355265 C42.0270359,35.0933303 41.6442131,35.0222323 41.1779262,35.0222323 C40.7639434,35.0222323 40.3967007,35.0679382 40.076198,35.15935 C39.7568081,35.2507618 39.4196125,35.4112403 39.065724,35.6418012 L39.065724,35.3553775 C39.065724,35.2913892 39.0401283,35.2365422 38.987824,35.1888049 C38.9366326,35.1410676 38.8765384,35.1166911 38.8064284,35.1166911 L37.3552632,35.1166911 C37.286266,35.1166911 37.2261718,35.1400519 37.1738675,35.1877892 C37.1226761,35.2355265 37.0959675,35.2903735 37.0959675,35.3533461 L37.0959675,41.6445096 C37.0959675,41.7074822 37.1249018,41.7653764 37.1805446,41.8161607 C37.2373003,41.866945 37.2996203,41.8933529 37.3686174,41.8933529 L38.9366326,41.8933529 C39.0056297,41.8933529 39.065724,41.866945 39.1180283,41.8161607 C39.1692197,41.7653764 39.1959283,41.7084979 39.1959283,41.6455253 L39.1959283,36.9957115 C39.4196125,36.8860174 39.6321681,36.7956213 39.8302566,36.7245232 C40.029458,36.6544408 40.2230951,36.6188918 40.4133936,36.6188918 C40.6125949,36.6188918 40.7739592,36.6361584 40.899712,36.6717075 C41.0243519,36.7072565 41.1222833,36.7681977 41.1912804,36.8545311 C41.2602776,36.9408645 41.3070175,37.0556371 41.3337261,37.1968175 C41.3593218,37.337998 41.3726761,37.5116804 41.3726761,37.7158334 L41.3726761,41.6455253 C41.3726761,41.7084979 41.3982718,41.7653764 41.4505761,41.8161607 C41.5017675,41.866945 41.5618617,41.8933529 41.6319717,41.8933529 L43.1988741,41.8933529 C43.2678712,41.8933529 43.331304,41.866945 43.3869468,41.8161607 C43.4437025,41.7653764 43.471524,41.7074822 43.471524,41.6445096 L43.471524,41.6445096 Z M49.1214978,41.6709175 L49.1214978,40.7557838 C49.1214978,40.6227288 49.0302435,40.5567092 48.8488479,40.5567092 L48.2145195,40.5567092 C48.0153181,40.5567092 47.8940168,40.5231915 47.8517282,40.4561562 C47.8083268,40.3891209 47.7860697,40.2377835 47.7860697,40.0011285 L47.7860697,36.5589663 L48.8488479,36.5589663 C48.917845,36.5589663 48.9779393,36.5356055 49.0302435,36.4878682 C49.0825478,36.4401309 49.1081435,36.3842681 49.1081435,36.3212956 L49.1081435,35.3553775 C49.1081435,35.2913892 49.0825478,35.2355265 49.0302435,35.1877892 C48.9779393,35.1410676 48.917845,35.1166911 48.8488479,35.1166911 L47.7860697,35.1166911 L47.7860697,33.8633337 C47.7860697,33.8003611 47.7649254,33.7505925 47.7226368,33.7150434 C47.6792354,33.6794944 47.6235926,33.6622277 47.5545954,33.6622277 L47.5156455,33.6622277 L45.9454046,33.9100553 C45.8764074,33.9263063 45.8163132,33.9537298 45.7640089,33.9933416 C45.7128175,34.0329534 45.6872218,34.0837377 45.6872218,34.1467103 L45.6872218,35.1166911 L44.6511521,35.1166911 C44.5810422,35.1166911 44.5187222,35.1420833 44.4630793,35.1938833 C44.4063236,35.2446676 44.3785022,35.3025618 44.3785022,35.3655344 L44.3785022,36.1455818 C44.3785022,36.2085543 44.4063236,36.2623857 44.4630793,36.3050446 C44.5187222,36.3487191 44.5810422,36.378174 44.6511521,36.394425 L45.6872218,36.5477937 L45.6872218,39.9767521 C45.6872218,40.395215 45.7350746,40.7364857 45.8285546,40.9995486 C45.9231474,41.2646428 46.0611417,41.4708272 46.2414245,41.6211489 C46.4217073,41.7704548 46.6465043,41.8710078 46.9169285,41.9228078 C47.1873527,41.9735921 47.4989526,42 47.8517282,42 C48.0409139,42 48.2100681,41.9918745 48.3569652,41.9756235 C48.5027494,41.9603882 48.6763551,41.9370274 48.8744436,41.9055411 C49.0391464,41.8821803 49.1214978,41.8039725 49.1214978,41.6709175 L49.1214978,41.6709175 Z M56.0401283,37.4344882 C56.0401283,37.00079 55.9689055,36.6320957 55.8264598,36.3284054 C55.6840141,36.0257307 55.4825871,35.7768875 55.2232914,35.583907 C54.9651087,35.3909265 54.6468316,35.2487304 54.2717989,35.1583343 C53.8956533,35.0679382 53.4749935,35.0222323 53.0075936,35.0222323 C52.5758052,35.0222323 52.1551453,35.0496558 51.7445012,35.1045029 C51.333857,35.1603656 51.00779,35.2152127 50.7663001,35.2700598 C50.6027101,35.3096716 50.5203587,35.3970207 50.5203587,35.5300756 L50.5203587,36.4888839 C50.5203587,36.5670918 50.541503,36.6229545 50.5849044,36.6544408 C50.6283058,36.6859271 50.6839487,36.7011624 50.7529458,36.7011624 L50.8186043,36.7011624 C50.9221,36.6940526 51.0511914,36.6838957 51.2069914,36.6717075 C51.3627913,36.6605349 51.5375098,36.6503781 51.7311469,36.6422526 C51.9258968,36.6341271 52.1295496,36.6290486 52.3409924,36.6249859 C52.5524352,36.6209231 52.7616523,36.6188918 52.9686436,36.6188918 C53.2713407,36.6188918 53.509492,36.6696761 53.6819848,36.7722605 C53.8544776,36.8748448 53.9412804,37.0962645 53.9412804,37.4344882 L53.9412804,37.8600609 L53.2412935,37.8600609 C52.1273239,37.8600609 51.3171642,38.0205394 50.8119272,38.3394651 C50.3066902,38.6583907 50.0540717,39.1652184 50.0540717,39.8589324 L50.0540717,39.9655795 C50.0540717,40.3515405 50.1163917,40.6745288 50.2421445,40.9345446 C50.3667845,41.1955761 50.533713,41.4037919 50.7407044,41.562239 C50.9476957,41.7196705 51.1825085,41.8324117 51.4462556,41.8984313 C51.7100026,41.9654667 51.9837654,42 52.2697696,42 C52.6581566,42 52.9931265,41.9522627 53.2735664,41.8578039 C53.5540063,41.763345 53.8199791,41.6333371 54.0703718,41.4677802 L54.0703718,41.6566979 C54.0703718,41.7196705 54.0959675,41.7745175 54.1482718,41.8222548 C54.1994632,41.8689764 54.2606703,41.8933529 54.3296675,41.8933529 L55.7808327,41.8933529 C55.8498298,41.8933529 55.9099241,41.8689764 55.9622283,41.8222548 C56.0145326,41.7745175 56.0401283,41.7196705 56.0401283,41.6566979 L56.0401283,37.4344882 Z M53.9802304,40.2966934 C53.8244305,40.3677914 53.657502,40.4287326 53.4805577,40.479517 C53.3036135,40.531317 53.1155407,40.5567092 52.9174522,40.5567092 C52.6403509,40.5567092 52.4355852,40.5211601 52.3020424,40.4500621 C52.1673868,40.378964 52.1006153,40.2174698 52.1006153,39.9655795 L52.1006153,39.8589324 C52.1006153,39.7167363 52.1184211,39.5907911 52.1529196,39.4800813 C52.1874182,39.3703871 52.2475124,39.2789753 52.3343153,39.2088929 C52.4200052,39.1377948 52.5368552,39.0839634 52.6837523,39.0484144 C52.8306494,39.0138811 53.0164965,38.9955987 53.2412935,38.9955987 L53.9802304,38.9955987 L53.9802304,40.2966934 Z M62.4145719,41.5500508 L62.4145719,40.4977993 C62.4145719,40.4348268 62.3912019,40.3850581 62.343349,40.3495091 C62.2954962,40.31396 62.2376277,40.2966934 62.1686305,40.2966934 L62.1430348,40.2966934 C61.9015449,40.3200542 61.6700707,40.3403679 61.4497251,40.3556032 C61.2293794,40.3718542 60.9333595,40.378964 60.5616654,40.378964 C60.4147683,40.378964 60.276774,40.3576346 60.1476826,40.31396 C60.0174784,40.2713012 59.9050799,40.1961404 59.810487,40.0894933 C59.7158942,39.9828462 59.64022,39.8416657 59.5834643,39.6639206 C59.5278214,39.4861754 59.5,39.2678027 59.5,39.0077869 L59.5,38.0144453 C59.5,37.7534138 59.5278214,37.5350412 59.5834643,37.3583117 C59.64022,37.1805665 59.7158942,37.0383704 59.810487,36.9317233 C59.9050799,36.8260919 60.0174784,36.750931 60.1476826,36.7072565 C60.276774,36.663582 60.4147683,36.6422526 60.5616654,36.6422526 C60.9333595,36.6422526 61.2293794,36.6503781 61.4497251,36.6656134 C61.6700707,36.6818643 61.9015449,36.7011624 62.1430348,36.7245232 L62.1686305,36.7245232 C62.2376277,36.7245232 62.2954962,36.7072565 62.343349,36.6717075 C62.3912019,36.6361584 62.4145719,36.5874055 62.4145719,36.5244329 L62.4145719,35.4711658 C62.4145719,35.3848324 62.3934276,35.3238912 62.3500262,35.2883422 C62.3066248,35.2527931 62.2376277,35.2233382 62.1430348,35.1999774 C61.9616392,35.1603656 61.7257135,35.1207539 61.4363708,35.0811421 C61.147028,35.0415303 60.8087196,35.0222323 60.4192197,35.0222323 C59.5033386,35.0222323 58.7721917,35.2781853 58.2235533,35.7911071 C57.6749149,36.3030132 57.4000393,37.0444645 57.4000393,38.0144453 L57.4000393,39.0077869 C57.4000393,39.9767521 57.6749149,40.7182034 58.2235533,41.2311252 C58.7721917,41.7430313 59.5033386,42 60.4192197,42 C60.8087196,42 61.147028,41.9796863 61.4363708,41.9400745 C61.7257135,41.9004627 61.9616392,41.8618666 62.1430348,41.8222548 C62.2376277,41.7978783 62.3066248,41.7684234 62.3500262,41.7328744 C62.3934276,41.698341 62.4145719,41.6363842 62.4145719,41.5500508 L62.4145719,41.5500508 Z M68,41.6709175 L68,40.7557838 C68,40.6227288 67.9087457,40.5567092 67.7273501,40.5567092 L67.0930217,40.5567092 C66.8938204,40.5567092 66.772519,40.5231915 66.7302304,40.4561562 C66.686829,40.3891209 66.6645719,40.2377835 66.6645719,40.0011285 L66.6645719,36.5589663 L67.7273501,36.5589663 C67.7963472,36.5589663 67.8564415,36.5356055 67.9087457,36.4878682 C67.96105,36.4401309 67.9866457,36.3842681 67.9866457,36.3212956 L67.9866457,35.3553775 C67.9866457,35.2913892 67.96105,35.2355265 67.9087457,35.1877892 C67.8564415,35.1410676 67.7963472,35.1166911 67.7273501,35.1166911 L66.6645719,35.1166911 L66.6645719,33.8633337 C66.6645719,33.8003611 66.6434276,33.7505925 66.6000262,33.7150434 C66.5577376,33.6794944 66.5020948,33.6622277 66.4330977,33.6622277 L66.3941477,33.6622277 L64.8227939,33.9100553 C64.7549097,33.9263063 64.6948154,33.9537298 64.6425111,33.9933416 C64.5913197,34.0329534 64.565724,34.0837377 64.565724,34.1467103 L64.565724,35.1166911 L63.5296544,35.1166911 C63.4595444,35.1166911 63.3972244,35.1420833 63.3415816,35.1938833 C63.2848259,35.2446676 63.2570045,35.3025618 63.2570045,35.3655344 L63.2570045,36.1455818 C63.2570045,36.2085543 63.2848259,36.2623857 63.3415816,36.3050446 C63.3972244,36.3487191 63.4595444,36.378174 63.5296544,36.394425 L64.565724,36.5477937 L64.565724,39.9767521 C64.565724,40.395215 64.6135769,40.7364857 64.7070568,40.9995486 C64.8016496,41.2646428 64.9396439,41.4708272 65.1199267,41.6211489 C65.3002095,41.7704548 65.5250065,41.8710078 65.7954307,41.9228078 C66.0658549,41.9735921 66.3774548,42 66.7302304,42 C66.9194161,42 67.0874574,41.9918745 67.2354674,41.9756235 C67.3812516,41.9603882 67.5548573,41.9370274 67.7529458,41.9055411 C67.9176486,41.8821803 68,41.8039725 68,41.6709175 L68,41.6709175 Z" id="Shape" fill="#004C81"></path>
            </g>
        </g>
    </g>
</svg>