<?xml version="1.0" encoding="utf-8"?>
<svg id="master-artboard" viewBox="0 0 488.1444396972656 223.7771759033203" version="1.1" xmlns="http://www.w3.org/2000/svg" x="0px" y="0px" style="enable-background:new 0 0 336 235.2;" width="488.1444396972656px" height="223.7771759033203px"><rect id="ee-background" x="0" y="0" width="488.1444396972656" height="223.7771759033203" style="fill: white; fill-opacity: 0; pointer-events: none;"/><g transform="matrix(5.549389839172363, 0, 0, 5.549389839172363, -454.32964038848877, -364.52435302734375)"><g>
	<g>
		<path fill="none" stroke="#FFFAE3" stroke-miterlimit="10" d="M143.81,81.421"/>
	</g>
</g><g>
	<path fill="#1E1E1C" d="M83.794,105.974c-1.125,0-1.666-0.766-1.666-1.909c0-1.277,0.799-1.981,1.763-1.981&#10;&#9;&#9;c1.042,0,1.673,0.697,1.673,1.909C85.563,105.265,84.764,105.974,83.794,105.974z M83.846,102.387c-0.71,0-1.329,0.58-1.329,1.605&#10;&#9;&#9;c0,0.985,0.434,1.672,1.323,1.672c0.704,0,1.335-0.574,1.335-1.609C85.175,102.995,84.679,102.387,83.846,102.387z"/>
	<path fill="#1E1E1C" d="M90.88,105.929l-1.684-2.657c-0.176-0.271-0.321-0.519-0.445-0.766c0.018,0.449,0.039,1.593,0.039,2.303&#10;&#9;&#9;v1.12h-0.359v-3.802h0.489l1.661,2.614c0.164,0.26,0.321,0.529,0.468,0.795c-0.017-0.535-0.04-1.656-0.04-2.395v-1.015h0.361v3.802&#10;&#9;&#9;H90.88z"/>
	<path fill="#1E1E1C" d="M94.618,105.929v-3.802h0.361v3.504h1.453v0.298H94.618z"/>
	<path fill="#1E1E1C" d="M99.067,105.929v-3.802h0.361v3.802H99.067z"/>
	<path fill="#1E1E1C" d="M105.126,105.929l-1.684-2.657c-0.174-0.271-0.32-0.519-0.445-0.766c0.018,0.449,0.04,1.593,0.04,2.303&#10;&#9;&#9;v1.12h-0.36v-3.802h0.49l1.661,2.614c0.163,0.26,0.321,0.529,0.468,0.795c-0.018-0.535-0.04-1.656-0.04-2.395v-1.015h0.36v3.802&#10;&#9;&#9;H105.126z"/>
	<path fill="#1E1E1C" d="M108.864,105.929v-3.802h1.877v0.293h-1.516v1.402h1.441v0.288h-1.441v1.521h1.516v0.298H108.864z"/>
	<path fill="#1E1E1C" d="M117.065,105.929v-3.802h0.359v3.504h1.453v0.298H117.065z"/>
	<path fill="#1E1E1C" d="M121.515,105.929v-3.802h1.875v0.293h-1.515v1.402h1.442v0.288h-1.442v1.521h1.515v0.298H121.515z"/>
	<path fill="#1E1E1C" d="M128.881,105.929l-1.685-2.657c-0.174-0.271-0.32-0.519-0.443-0.766c0.016,0.449,0.039,1.593,0.039,2.303&#10;&#9;&#9;v1.12h-0.36v-3.802h0.489l1.662,2.614c0.162,0.26,0.32,0.529,0.467,0.795c-0.017-0.535-0.039-1.656-0.039-2.395v-1.015h0.36v3.802&#10;&#9;&#9;H128.881z"/>
	<path fill="#1E1E1C" d="M133.509,105.946c-0.377,0-0.641-0.022-0.889-0.018v-3.802c0.292,0,0.691-0.017,1.064-0.017&#10;&#9;&#9;c1.25,0,1.965,0.603,1.965,1.887C135.649,105.304,134.754,105.946,133.509,105.946z M133.64,102.403&#10;&#9;&#9;c-0.221,0-0.496,0.012-0.66,0.017v3.188c0.17,0.022,0.417,0.039,0.58,0.039c1.015,0,1.713-0.502,1.713-1.627&#10;&#9;&#9;C135.272,102.938,134.709,102.403,133.64,102.403z"/>
	<path fill="#1E1E1C" d="M138.539,105.929v-3.802h0.36v3.802H138.539z"/>
	<path fill="#1E1E1C" d="M144.599,105.929l-1.686-2.657c-0.174-0.271-0.32-0.519-0.445-0.766c0.018,0.449,0.04,1.593,0.04,2.303&#10;&#9;&#9;v1.12h-0.36v-3.802h0.49l1.662,2.614c0.162,0.26,0.32,0.529,0.467,0.795c-0.018-0.535-0.039-1.656-0.039-2.395v-1.015h0.36v3.802&#10;&#9;&#9;H144.599z"/>
	<path fill="#1E1E1C" d="M150.923,102.585c-0.327-0.13-0.682-0.204-1.014-0.204c-0.816,0-1.572,0.53-1.572,1.655&#10;&#9;&#9;c0,1.054,0.631,1.635,1.543,1.635c0.305,0,0.559-0.046,0.807-0.125v-1.515h0.359v1.735c-0.383,0.14-0.838,0.207-1.223,0.207&#10;&#9;&#9;c-1.113,0-1.869-0.687-1.869-1.875c0-1.148,0.756-2.016,2-2.016c0.349,0,0.682,0.051,1.025,0.157L150.923,102.585z"/>
	<path fill="#1E1E1C" d="M158.144,104.408c-0.119,0-0.236-0.005-0.35-0.017v1.537h-0.361v-3.802c0.26-0.01,0.553-0.017,0.867-0.017&#10;&#9;&#9;c0.84,0,1.296,0.439,1.296,1.065C159.596,103.919,158.954,104.408,158.144,104.408z M158.233,102.409c-0.176,0-0.311,0-0.439,0.011&#10;&#9;&#9;v1.662c0.113,0.017,0.242,0.028,0.377,0.028c0.653-0.006,1.047-0.355,1.047-0.874C159.218,102.696,158.897,102.409,158.233,102.409&#10;&#9;&#9;z"/>
	<path fill="#1E1E1C" d="M162.255,105.929v-0.286l0.811-0.946c0.625-0.728,0.799-1.104,0.799-1.566c0-0.41-0.23-0.749-0.742-0.749&#10;&#9;&#9;c-0.254,0-0.547,0.102-0.777,0.242l-0.051-0.321c0.264-0.135,0.553-0.219,0.912-0.219c0.664,0,1.043,0.428,1.043,0.997&#10;&#9;&#9;c0,0.546-0.249,0.991-0.947,1.802l-0.619,0.727v0.005c0.299-0.01,0.985-0.017,1.717-0.017v0.332H162.255z"/>
	<path fill="#1E1E1C" d="M168.005,104.408c-0.118,0-0.236-0.005-0.35-0.017v1.537h-0.36v-3.802c0.259-0.01,0.552-0.017,0.867-0.017&#10;&#9;&#9;c0.839,0,1.296,0.439,1.296,1.065C169.458,103.919,168.815,104.408,168.005,104.408z M168.095,102.409c-0.174,0-0.31,0-0.439,0.011&#10;&#9;&#9;v1.662c0.113,0.017,0.242,0.028,0.378,0.028c0.653-0.006,1.048-0.355,1.048-0.874C169.081,102.696,168.76,102.409,168.095,102.409z&#10;&#9;&#9;"/>
</g><g>
	<path d="M 164.7689971923828 78.35900115966797 L 164.7689971923828 78.35800170898438 L 164.77699279785156 78.37100219726562 Z" fill="#010202"/>
	<path fill="#010202" d="M167.267,81.026c-1.872-2.033-9.994-0.951-11.59,3.279c-1.138-3.628-9.636-4.828-11.342-3.153&#10;&#9;&#9;c0,0,2.889-5.169,11.342-5.307C163.593,75.716,166.96,80.394,167.267,81.026z"/>
</g><g>
	<g>
		<path fill="none" stroke="#000000" stroke-miterlimit="10" d="M158.938,76.315c0,0,1.611-12.416,4.266-8.586"/>
		<g>
			<path d="M 165.029994 67.654999 A 1.88 1.88 0 0 1 163.149994 69.534999 A 1.88 1.88 0 0 1 161.269994 67.654999 A 1.88 1.88 0 0 1 163.149994 65.774999 A 1.88 1.88 0 0 1 165.029994 67.654999 Z"/>
		</g>
	</g>
</g><g>
	<g>
		<path fill="none" stroke="#000000" stroke-miterlimit="10" d="M152.478,76.315c0,0-1.609-12.416-4.266-8.586"/>
		<g>
			<path d="M 150.146998 67.654999 A 1.88 1.88 0 0 1 148.266998 69.534999 A 1.88 1.88 0 0 1 146.386998 67.654999 A 1.88 1.88 0 0 1 148.266998 65.774999 A 1.88 1.88 0 0 1 150.146998 67.654999 Z"/>
		</g>
	</g>
</g><g>
	<g>
		<path fill="none" stroke="#FFFAE3" stroke-miterlimit="10" d="M157.332,79.193"/>
	</g>
</g><path d="M163.217,86.443c-0.648,0-1.101,0.478-1.187,1.211h2.238C164.293,86.896,163.876,86.443,163.217,86.443z"/><path d="M148.432,86.443c-0.647,0-1.101,0.478-1.186,1.211h2.237C149.508,86.896,149.093,86.443,148.432,86.443z"/><path d="M92.228,82.654c-0.113-0.653-0.227-1.279-0.283-1.96H88.11v5.282h3.209c0.057-0.54,0.17-1.079,0.312-1.562h2.357v5.936&#10;&#9;h-2.357c-0.143-0.482-0.256-0.993-0.312-1.562H88.11v5.48c0.852,0.058,1.732,0.199,2.471,0.342v2.3h-8.633v-2.3&#10;&#9;c0.738-0.143,1.618-0.284,2.47-0.342V80.382c-0.852-0.058-1.731-0.199-2.47-0.341V77.74h13.034v4.914H92.228z"/><path d="M96.53,96.91v-2.378c0.764-0.146,1.674-0.293,2.554-0.352v-8.983c-0.704-0.117-1.702-0.234-2.554-0.293v-2.349&#10;&#9;c1.85-0.234,4.109-0.323,6.281-0.264v11.889c0.822,0.059,1.674,0.205,2.379,0.352v2.378H96.53z M100.933,80.442&#10;&#9;c-1.291,0-2.318-1.027-2.318-2.289c0-1.233,1.027-2.262,2.318-2.262c1.293,0,2.35,0.999,2.35,2.262&#10;&#9;C103.282,79.415,102.226,80.442,100.933,80.442z"/><path d="M118.047,87.575c0-1.526-0.411-2.437-1.79-2.437c-1.908,0-3.405,2.173-3.405,4.727v4.315&#10;&#9;c0.704,0.059,1.497,0.146,2.143,0.322v2.407h-8.425v-2.378c0.764-0.146,1.674-0.293,2.555-0.352v-8.983&#10;&#9;c-0.705-0.117-1.703-0.234-2.555-0.293v-2.349c1.85-0.234,4.109-0.323,6.076-0.264c0,0.675-0.059,1.849-0.205,2.612l0.029,0.029&#10;&#9;c0.881-1.731,2.584-2.936,4.961-2.936c3.287,0,4.344,2.113,4.344,4.667v7.516c0.852,0.059,1.703,0.205,2.408,0.352v2.378h-6.136&#10;&#9;V87.575z"/><path fill="#FFDE00" d="M132.059,96.969c-1.204,0-3.288-0.059-5.783-0.059V77.125c1.673-0.088,4.257-0.146,6.692-0.146&#10;&#9;c4.286,0,6.664,1.732,6.664,4.902c0,1.967-1.262,3.699-3.141,4.433v0.059c2.348,0.499,3.521,2.437,3.521,4.433&#10;&#9;C140.013,93.682,138.047,96.969,132.059,96.969z M132.322,80.061c-0.792,0-1.556,0.029-2.231,0.059v5.166&#10;&#9;c0.471,0.029,0.939,0.029,1.557,0.029c2.612,0,3.963-1.056,3.963-2.817C135.61,81.029,134.729,80.061,132.322,80.061z&#10;&#9; M131.765,88.163c-0.293,0-1.262,0-1.674,0.029v5.548c0.471,0.059,1.204,0.117,2.085,0.117c2.495,0,3.757-1.175,3.757-2.965&#10;&#9;C135.933,88.955,134.26,88.163,131.765,88.163z"/><path fill="#FFDE00" d="M154.808,90.217h-9.041c-0.029,2.731,1.321,4.052,4.021,4.052c1.439,0,2.994-0.323,4.257-0.91l0.353,2.906&#10;&#9;c-1.557,0.616-3.406,0.938-5.226,0.938c-4.638,0-7.221-2.318-7.221-7.456c0-4.462,2.466-7.749,6.839-7.749&#10;&#9;c4.257,0,6.136,2.906,6.136,6.517C154.926,89.014,154.896,89.601,154.808,90.217z M148.673,84.757c-1.556,0-2.643,1.146-2.848,2.906&#10;&#9;h5.373C151.257,85.844,150.259,84.757,148.673,84.757z"/><path fill="#FFDE00" d="M169.62,90.217h-9.041c-0.029,2.731,1.321,4.052,4.021,4.052c1.438,0,2.995-0.323,4.258-0.91l0.352,2.906&#10;&#9;c-1.556,0.616-3.405,0.938-5.225,0.938c-4.639,0-7.222-2.318-7.222-7.456c0-4.462,2.466-7.749,6.839-7.749&#10;&#9;c4.256,0,6.135,2.906,6.135,6.517C169.737,89.014,169.708,89.601,169.62,90.217z M163.485,84.757c-1.555,0-2.642,1.146-2.848,2.906&#10;&#9;h5.372C166.069,85.844,165.071,84.757,163.485,84.757z"/></g></svg>