<?xml version="1.0" encoding="utf-8"?><svg xmlns="http://www.w3.org/2000/svg" width="308" height="51" fill="#32bf55" xmlns:v="https://vecta.io/nano"><path d="M91.63 14.27h4.36c.7 0 1.19.69.95 1.35l-8.05 22.37c-.14.4-.52.67-.95.67h-3.68c-.43 0-.82-.27-.96-.68l-5.46-15.97-5.2 15.96c-.14.42-.52.7-.96.7h-3.63c-.42 0-.8-.26-.95-.66l-8.29-22.37a1.01 1.01 0 0 1 .95-1.36h4.35c.44 0 .82.28.96.69l4.94 15.02 5.17-15.72h5.38l5.17 15.72 4.94-15.02c.14-.41.52-.69.96-.69zm31.81 10.71v12.67c0 .56-.45 1.01-1.01 1.01h-4.04c-.56 0-1.01-.45-1.01-1.01V25.4c0-3.92-2.35-6.01-5.06-6.01s-6.21 1.62-6.21 6.37v11.89c0 .56-.45 1.01-1.01 1.01h-4.04c-.56 0-1.01-.45-1.01-1.01V2.02c0-.56.45-1.01 1.01-1.01h4.04c.56 0 1.01.45 1.01 1.01v15.96c1.2-2.98 5.12-4.33 7.57-4.33 6.27 0 9.76 4.23 9.76 11.33zm20.69-10.71h4.33a1.01 1.01 0 0 1 .93 1.4l-14.3 34.27a1 1 0 0 1-.93.62h-4.2c-.72 0-1.2-.72-.94-1.39l4.93-12.24-9.11-21.26a1.01 1.01 0 0 1 .93-1.41h4.42c.41 0 .78.25.94.63l6.06 14.83 6.01-14.83c.15-.38.52-.63.94-.63zM171.7 1.43h4.04c.56 0 1.01.45 1.01 1.01v35.63c0 .56-.45 1.01-1.01 1.01h-4.04c-.56 0-1.01-.45-1.01-1.01v-2.23c-1.67 2.56-5.12 3.86-8.09 3.86-6.42 0-12.01-5.07-12.01-12.85 0-7.83 5.53-12.79 11.96-12.79 3.08 0 6.47 1.25 8.15 3.81V2.43c0-.56.45-1.01 1.01-1.01zm-1.11 25.38c0-4.28-3.55-7.1-7.05-7.1-3.76 0-6.84 3.03-6.84 7.1s3.08 7.26 6.84 7.26 7.05-2.98 7.05-7.26zm9.3-.37c0-7.73 6.01-12.79 12.95-12.79s13 5.06 13 12.79-6.06 12.85-13 12.85c-6.95 0-12.95-5.12-12.95-12.85zm19.84 0c0-4.18-3.13-7.15-6.89-7.15S186 22.27 186 26.44c0 4.28 3.08 7.21 6.84 7.21s6.89-2.92 6.89-7.21zm32.55-1.46v12.67c0 .56-.45 1.01-1.01 1.01h-4.04c-.56 0-1.01-.45-1.01-1.01V25.4c0-3.92-2.35-6.01-5.06-6.01s-6.21 1.62-6.21 6.32v11.94c0 .56-.45 1.01-1.01 1.01h-4.04c-.56 0-1.01-.45-1.01-1.01V15.28c0-.56.45-1.01 1.01-1.01h4.04c.56 0 1.01.45 1.01 1.01v2.85c1.25-3.08 5.07-4.49 7.57-4.49 6.27 0 9.76 4.23 9.76 11.33zm24.84-10.71h4.04c.56 0 1.01.45 1.01 1.01v22.37c0 .56-.45 1.01-1.01 1.01h-4.04c-.56 0-1.01-.45-1.01-1.01v-2.8c-1.62 2.66-4.86 4.44-8.36 4.44-6.53 0-11.75-5.27-11.75-12.85 0-7.36 5.01-12.79 11.91-12.79 3.34 0 6.58 1.46 8.2 4.02v-2.38c0-.56.45-1.01 1.01-1.01zm-1.11 12.17c0-4.18-3.45-7.15-7.05-7.15-3.92 0-6.89 3.24-6.89 7.15 0 3.92 2.98 7.21 6.95 7.21 3.76 0 7-3.13 7-7.21zm25.13-16.31v2.78c0 .56-.45 1.01-1.01 1.01h-4.16v24.63c0 .56-.45 1.01-1.01 1.01h-4.04c-.56 0-1.01-.45-1.01-1.01V13.92h-3.38c-.56 0-1.01-.45-1.01-1.01v-2.78c0-.56.45-1.01 1.01-1.01h3.38V2.01c0-.56.45-1.01 1.01-1.01h4.04c.56 0 1.01.45 1.01 1.01v7.11h4.16c.56 0 1.01.45 1.01 1.01zm25.03 18h-17.95c.68 3.39 3.29 5.22 6.94 5.22 2.29 0 4.54-.88 6.01-2.44a1 1 0 0 1 1.34-.11l2.52 1.91a1.02 1.02 0 0 1 .18 1.44c-2.36 3.02-6.35 4.68-10.42 4.68-7.26 0-12.79-5.22-12.79-12.85 0-7.78 5.8-12.79 12.79-12.79s12.43 4.96 12.43 12.58a23.75 23.75 0 0 1-.05 1.39 1.01 1.01 0 0 1-1.01.96zm-4.95-4.23c-.36-3.34-2.98-5.33-6.37-5.33-3.24 0-5.9 1.62-6.63 5.33h13zM42 1.54H10.11C5.08 1.54 1 5.49 1 10.36v30.86c0 4.38 3.3 8.02 7.64 8.7l15.02.11h18.36c5.03 0 9.11-3.95 9.11-8.82V10.35c0-4.87-4.08-8.82-9.11-8.82zm-15.95 40.8c-9.39 0-16.99-7.26-17-16.22h33.99c0 8.96-7.61 16.22-16.99 16.22z"/></svg>